<svg width="30" height="30" viewBox="0 0 30 30" fill="none" xmlns="http://www.w3.org/2000/svg">
<path d="M14.9994 2.70259C19.0047 2.70259 19.4786 2.71807 21.0606 2.79012C22.5229 2.8568 23.3172 3.10092 23.8459 3.30634C24.5461 3.57845 25.0456 3.90354 25.5708 4.4281C26.0959 4.95326 26.421 5.45281 26.6925 6.15302C26.8979 6.68175 27.1421 7.47603 27.2087 8.93837C27.2808 10.5198 27.2963 10.9943 27.2963 14.9997C27.2963 19.0051 27.2808 19.479 27.2087 21.061C27.1421 22.5234 26.8979 23.3177 26.6925 23.8464C26.4204 24.5466 26.0953 25.0461 25.5708 25.5713C25.0456 26.0965 24.5461 26.4216 23.8459 26.6931C23.3172 26.8985 22.5229 27.1426 21.0606 27.2093C19.4792 27.2813 19.0047 27.2968 14.9994 27.2968C10.9941 27.2968 10.5196 27.2813 8.9382 27.2093C7.47589 27.1426 6.68162 26.8985 6.1529 26.6931C5.4527 26.421 4.95316 26.0959 4.42802 25.5713C3.90287 25.0461 3.57778 24.5466 3.30628 23.8464C3.10086 23.3177 2.85675 22.5234 2.79006 21.061C2.71802 19.4796 2.70254 19.0051 2.70254 14.9997C2.70254 10.9943 2.71802 10.5204 2.79006 8.93837C2.85675 7.47603 3.10086 6.68175 3.30628 6.15302C3.57837 5.45281 3.90347 4.95326 4.42802 4.4281C4.95316 3.90295 5.4527 3.57785 6.1529 3.30634C6.68162 3.10092 7.47589 2.8568 8.9382 2.79012C10.5202 2.71807 10.9941 2.70259 14.9994 2.70259ZM14.9994 0C10.9257 0 10.4148 0.017267 8.81495 0.0905031C7.21867 0.163144 6.12849 0.416791 5.17406 0.787734C4.18747 1.17118 3.35093 1.68383 2.51737 2.51801C1.6838 3.35159 1.17056 4.18815 0.787719 5.17416C0.416782 6.12861 0.163141 7.21882 0.0905013 8.81512C0.0172667 10.415 0 10.9259 0 14.9997C0 19.0735 0.0172667 19.5844 0.0905013 21.1843C0.163141 22.7806 0.416782 23.8708 0.787719 24.8252C1.17116 25.8118 1.6838 26.6484 2.51796 27.482C3.35212 28.3162 4.18807 28.8288 5.17465 29.2123C6.12849 29.5832 7.21927 29.8369 8.81554 29.9095C10.4154 29.9827 10.9262 30 15 30C19.0738 30 19.5846 29.9827 21.1845 29.9095C22.7807 29.8369 23.8715 29.5832 24.8253 29.2123C25.8119 28.8288 26.6485 28.3162 27.482 27.482C28.3162 26.6478 28.8288 25.8118 29.2123 24.8252C29.5832 23.8714 29.8369 22.7806 29.9095 21.1843C29.9827 19.5844 30 19.0735 30 14.9997C30 10.9259 29.9827 10.415 29.9095 8.81512C29.8369 7.21882 29.5832 6.12801 29.2123 5.17416C28.8288 4.18756 28.3162 3.351 27.482 2.51742C26.6479 1.68324 25.8119 1.17059 24.8253 0.787139C23.8703 0.416791 22.7801 0.163144 21.1839 0.0905031C19.584 0.017267 19.0732 0 14.9994 0Z" fill="white"/>
<path d="M14.9995 7.29785C10.7453 7.29785 7.29736 10.7465 7.29736 15.0001C7.29736 19.2538 10.7459 22.7024 14.9995 22.7024C19.2531 22.7024 22.7016 19.2538 22.7016 15.0001C22.7016 10.7465 19.2537 7.29785 14.9995 7.29785ZM14.9995 19.9998C12.238 19.9998 9.9999 17.7611 9.9999 15.0001C9.9999 12.2386 12.2386 10.0004 14.9995 10.0004C17.7604 10.0004 19.9991 12.2392 19.9991 15.0001C19.9991 17.7617 17.761 19.9998 14.9995 19.9998Z" fill="white"/>
<path d="M23.0064 8.79226C24.0005 8.79226 24.8064 7.9864 24.8064 6.99232C24.8064 5.99824 24.0005 5.19238 23.0064 5.19238C22.0124 5.19238 21.2065 5.99824 21.2065 6.99232C21.2065 7.9864 22.0124 8.79226 23.0064 8.79226Z" fill="white"/>
</svg>
