<svg width="78" height="86" viewBox="0 0 78 86" fill="none" xmlns="http://www.w3.org/2000/svg">
<g clip-path="url(#clip0_7524_26126)">
<path d="M77.1856 64.5837C75.8984 64.0575 74.5201 63.8028 73.1338 63.8347C69.7661 63.8347 67.7201 65.8467 67.7201 68.199C67.7201 70.6195 69.2588 71.5727 71.3915 72.3455C73.6778 73.1762 74.2786 73.8264 74.2786 74.9056C74.2801 75.1987 74.2224 75.4891 74.1093 75.7586C73.9961 76.028 73.8298 76.2709 73.6207 76.472C73.4116 76.6732 73.1641 76.8283 72.8938 76.9278C72.6234 77.0273 72.3359 77.069 72.049 77.0503C70.3569 77.0503 69.0819 76.029 68.1006 73.2408L67.4131 73.4213L67.5332 77.4214C69.0527 77.9784 70.6547 78.2651 72.2693 78.269C75.8339 78.269 78.0033 76.492 78.0033 73.6051C78.0033 71.668 77.0788 70.6093 74.7358 69.6799C72.2092 68.6825 71.3314 68.0527 71.3314 66.8611C71.3314 65.6696 72.1124 64.8186 73.1938 64.8186C74.8226 64.8186 75.9273 65.8398 76.6583 68.2637L77.3258 68.0799L77.1856 64.5837Z" fill="#ffffff"/>
<path d="M47.5109 63.9909C46.3747 64.0058 45.2587 64.2989 44.2567 64.8453C44.2567 61.8734 44.3068 59.2793 44.3768 58.2988L38.3691 59.4801V60.0282L38.9532 60.1065C39.791 60.2223 40.1114 60.7227 40.2082 61.8597C40.3984 64.0385 40.3717 75.7392 40.2082 77.615C41.883 78.0227 43.5964 78.243 45.3181 78.272C50.0742 78.272 52.9345 75.2694 52.9345 70.5272C52.9345 66.7245 50.5982 63.9909 47.4975 63.9909H47.5109ZM45.4315 77.3018C45.089 77.2946 44.7476 77.2605 44.4102 77.1996C44.3168 75.8822 44.2567 70.4727 44.2634 65.7407C44.7121 65.5784 45.1858 65.4999 45.6618 65.5092C47.631 65.5092 48.7324 67.8241 48.7391 70.7484C48.7391 74.4762 47.3807 77.3018 45.4315 77.3018Z" fill="#ffffff"/>
<path d="M15.7735 58.7275H0.0166016V59.4969L0.854342 59.6161C2.05588 59.7965 2.52315 60.5523 2.65999 62.2851C2.91218 66.3128 2.91218 70.3529 2.65999 74.3806C2.51647 76.1134 2.05588 76.8692 0.854342 77.053L0.0166016 77.1688V77.9415H10.1429V77.1688L9.07822 77.053C7.87668 76.8692 7.40941 76.1134 7.27591 74.3806C7.17912 73.2061 7.1157 71.2146 7.09234 68.886L9.18169 68.9541C10.5768 68.9984 11.1576 70.0537 11.4947 71.6129H12.2757V65.1106H11.4947C11.1609 66.6698 10.5768 67.7218 9.18169 67.7694L7.089 67.8375C7.089 64.7736 7.12905 61.8187 7.27591 60.045H10.3866C12.8163 60.045 14.1147 61.6178 14.9291 64.3957L15.8636 64.1302L15.7735 58.7275Z" fill="#ffffff"/>
<path d="M20.8933 63.834C25.3757 63.834 27.5985 66.9285 27.5985 71.0137C27.5985 75.0002 25.0853 78.2683 20.6062 78.2683C16.1271 78.2683 13.9043 75.1704 13.9043 71.0852C13.9043 67.1021 16.4142 63.834 20.8933 63.834ZM20.663 64.7191C18.6804 64.7191 18.1264 67.4426 18.1264 71.0511C18.1264 74.5542 19.0042 77.3832 20.8432 77.3832C22.8191 77.3832 23.3764 74.6597 23.3764 71.0511C23.3764 67.5481 22.4987 64.7191 20.663 64.7191Z" fill="#ffffff"/>
<path d="M54.0459 71.181C54.0459 67.4022 56.3822 63.8447 60.9981 63.8447C64.7563 63.8447 66.5486 66.6839 66.5686 70.4015H58.1879C58.0944 73.7717 59.7699 76.2501 62.974 76.2501C64.0708 76.3077 65.1487 75.9432 65.9946 75.2288L66.3884 75.7088C65.4572 77.0229 63.518 78.2722 60.9447 78.2722C56.9062 78.2722 54.0492 75.3547 54.0459 71.181ZM58.2179 69.4414L62.4233 69.3529C62.4433 67.4533 62.1463 64.7435 60.6343 64.7435C59.1224 64.7435 58.258 67.3069 58.2179 69.4414Z" fill="#ffffff"/>
<path d="M39.2906 64.2256C37.7786 63.303 35.0218 63.7388 33.6166 67.0138L33.6867 63.8239L27.7124 65.0086V65.5567L28.2965 65.6316C29.1309 65.7508 29.4513 66.2478 29.5514 67.3882C29.7268 70.0361 29.7268 72.6929 29.5514 75.3407C29.4513 76.4778 29.1309 76.9782 28.2965 77.094L27.7124 77.1723V77.945H36.0297V77.1723L34.945 77.094C34.1073 76.9782 33.7869 76.4778 33.6901 75.3407C33.5285 72.8815 33.514 70.4144 33.6467 67.9534C34.0472 67.2725 36.003 66.738 37.8153 67.9772L39.2906 64.2256Z" fill="#ffffff"/>
<path d="M4.51579 82.3609H2.71014V85.9627H1.82901V82.3609H0V81.7754H4.51579V82.3609Z" fill="#ffffff"/>
<path d="M7.42969 85.9627V81.7754H9.81608C10.8174 81.7754 11.5149 82.4563 11.5149 83.1371C11.4984 83.4365 11.3833 83.7213 11.1882 83.9456C10.9932 84.1699 10.7296 84.3204 10.4402 84.3729L11.7486 85.9627H10.7673L9.56242 84.5022H8.29413V85.9627H7.42969ZM8.29413 83.9201H9.80941C9.9145 83.9251 10.0195 83.9086 10.1183 83.8716C10.217 83.8345 10.3075 83.7777 10.3843 83.7044C10.4611 83.6311 10.5228 83.5428 10.5657 83.4448C10.6085 83.3468 10.6317 83.241 10.6338 83.1337C10.6143 82.9146 10.513 82.7116 10.3509 82.5665C10.1888 82.4214 9.97819 82.3454 9.76268 82.3541H8.29413V83.9201Z" fill="#ffffff"/>
<path d="M14.4653 85.9622L16.6748 81.7646H17.3958L19.5852 85.9622H18.6674L18.08 84.8217H15.9639L15.3932 85.9622H14.4653ZM17.0286 82.5034L16.1174 84.3281H17.9097L17.0286 82.5034Z" fill="#ffffff"/>
<path d="M22.4754 81.7754L24.1442 85.1389L25.7896 81.7754H26.7008L24.5046 85.9627H23.7637L21.5542 81.7754H22.4754Z" fill="#ffffff"/>
<path d="M33.5896 85.3874V85.9627H29.8281V81.7754H33.5195V82.3609H30.6926V83.5558H33.1424V84.1039H30.6926V85.3874H33.5896Z" fill="#ffffff"/>
<path d="M36.9873 85.9627V81.7754H37.8517V85.3874H40.7955V85.9627H36.9873Z" fill="#ffffff"/>
<path d="M49.6401 85.4515C49.1962 85.8159 48.6411 86.0098 48.0714 85.9996C46.6429 85.9996 45.5215 84.9544 45.5215 83.8548C45.5215 82.7552 46.6262 81.7441 48.1015 81.7441C49.1294 81.7441 49.8337 82.1118 50.1941 82.6633L49.5266 83.0276C49.3598 82.7993 49.1394 82.6173 48.8858 82.4984C48.6321 82.3794 48.3533 82.3273 48.0748 82.3467C47.8662 82.3324 47.6569 82.3609 47.4593 82.4305C47.2616 82.5001 47.0797 82.6093 46.9241 82.7518C46.7686 82.8943 46.6426 83.0671 46.5536 83.2601C46.4646 83.453 46.4144 83.6622 46.4059 83.8753C46.4059 84.7195 47.1536 85.4072 48.1448 85.4072C48.7047 85.4059 49.2422 85.1825 49.6434 84.7842V84.3416H48.492V83.8514H50.3677V85.9621H49.6434L49.6401 85.4515Z" fill="#ffffff"/>
<path d="M57.617 83.9201V81.7754H58.4881V83.9201C58.4881 85.0674 57.8206 86.0172 56.1184 86.0172C54.3728 86.0172 53.7554 84.9959 53.7554 83.9201V81.7754H54.6198V83.9201C54.6198 84.6895 54.9836 85.4214 56.1184 85.4214C57.2532 85.4214 57.617 84.652 57.617 83.9201Z" fill="#ffffff"/>
<path d="M62.1196 85.9627V81.7822H62.9874V85.9627H62.1196Z" fill="#ffffff"/>
<path d="M66.6787 85.9627V81.7754H68.6245C70.3901 81.7754 71.2946 82.7082 71.2946 83.869C71.2946 85.1389 70.2466 85.9729 68.6245 85.9729L66.6787 85.9627ZM68.6245 82.3507H67.5432V85.3772H68.6245C69.7827 85.3772 70.4135 84.7201 70.4135 83.8588C70.4135 82.9975 69.7593 82.3609 68.6245 82.3609V82.3507Z" fill="#ffffff"/>
<path d="M77.9901 85.3874V85.9627H74.2319V81.7754H77.9233V82.3609H75.0964V83.5558H77.5462V84.1039H75.0964V85.3874H77.9901Z" fill="#ffffff"/>
<path d="M20.7301 27.2379L26.4508 31.4797L24.2647 24.6132L29.9887 20.3748H22.9129L20.7301 13.5117L18.5407 20.3748H11.4683L17.1889 24.6132L15.0061 31.4797L20.7301 27.2379Z" fill="#ffffff"/>
<path d="M59.4531 20.3714L57.2703 13.5117L55.0808 20.3714H48.0117L53.7324 24.6132L51.5496 31.4729L57.2703 27.2311L62.9943 31.4729L60.8081 24.6132L66.5321 20.3714H59.4531Z" fill="#ffffff"/>
<path d="M29.8949 42.2889L27.7121 35.4258L25.526 42.2889H18.4536L24.1743 46.5307L21.9915 53.3904L27.7121 49.1486L33.4328 53.3904L31.25 46.5307L36.974 42.2889H29.8949Z" fill="#ffffff"/>
<path d="M42.5377 11.1049L48.2617 6.85971H41.1893L39.0032 0L36.817 6.85971H29.7446L35.4686 11.1049L33.2792 17.9646L39.0032 13.7228L44.7272 17.9646L42.5377 11.1049Z" fill="#ffffff"/>
<path d="M59.5262 42.2889H52.4504L50.2643 35.4258L48.0815 42.2889H41.0024L46.7298 46.5273L44.5437 53.3938L50.2643 49.1486L55.9917 53.3938L53.8055 46.5273L59.5262 42.2889Z" fill="#ffffff"/>
<path d="M35.295 31.3881H32.3145V30.7311L33.6863 29.257C33.9526 29.011 34.1311 28.6817 34.1936 28.3208C34.2038 28.1679 34.1613 28.0162 34.0735 27.8919C34.0314 27.8445 33.9798 27.8069 33.9222 27.7817C33.8646 27.7564 33.8024 27.7441 33.7397 27.7455C33.6673 27.7451 33.5959 27.7629 33.5319 27.7974C33.4679 27.8318 33.4131 27.8818 33.3726 27.943C33.2748 28.0865 33.2256 28.2586 33.2324 28.4332H32.2311C32.2274 28.1719 32.2947 27.9146 32.4255 27.6899C32.5562 27.4652 32.7454 27.2818 32.9721 27.16C33.213 27.0316 33.4813 26.9661 33.7531 26.9693C34.1367 26.9475 34.515 27.0684 34.8178 27.3098C34.9454 27.4268 35.0454 27.5719 35.1102 27.734C35.1749 27.8962 35.2027 28.0712 35.1916 28.2459C35.1916 28.4173 35.1599 28.587 35.0981 28.7464C35.0239 28.9289 34.9263 29.1007 34.8077 29.257C34.6098 29.5095 34.3969 29.7494 34.1703 29.9753L33.6162 30.6222H35.285L35.295 31.3881Z" fill="#ffffff"/>
<path d="M38.7564 29.6073C38.787 30.0938 38.6487 30.5759 38.3659 30.969C38.2323 31.13 38.0639 31.2572 37.8739 31.3405C37.6839 31.4238 37.4776 31.4609 37.2711 31.449C37.0635 31.46 36.8561 31.4221 36.6652 31.3383C36.4742 31.2545 36.3046 31.1269 36.1697 30.9656C35.8863 30.5728 35.748 30.0905 35.7792 29.6038V28.8072C35.7491 28.3212 35.886 27.8397 36.1664 27.4455C36.3087 27.2945 36.4795 27.1743 36.6685 27.0922C36.8574 27.0101 37.0607 26.9678 37.2661 26.9678C37.4715 26.9678 37.6748 27.0101 37.8638 27.0922C38.0528 27.1743 38.2235 27.2945 38.3659 27.4455C38.648 27.839 38.7861 28.3207 38.7564 28.8072V29.6073ZM37.7551 28.6813C37.7686 28.4412 37.7275 28.2012 37.6349 27.98C37.6003 27.9072 37.5454 27.8465 37.4772 27.8053C37.4089 27.7641 37.3303 27.7444 37.2511 27.7485C37.1752 27.7437 37.0996 27.7618 37.0337 27.8005C36.9678 27.8393 36.9146 27.897 36.8806 27.9664C36.7918 28.1708 36.7495 28.3931 36.7571 28.6166V29.7298C36.7422 29.9744 36.7833 30.2192 36.8773 30.4447C36.9127 30.5157 36.9674 30.5746 37.0349 30.6145C37.1025 30.6544 37.1799 30.6734 37.2578 30.6694C37.3345 30.6737 37.4107 30.6551 37.4771 30.6157C37.5435 30.5764 37.5972 30.5182 37.6316 30.4481C37.7241 30.234 37.7664 30.0009 37.7551 29.7673V28.6813Z" fill="#ffffff"/>
<path d="M42.254 31.3881H39.2735V30.7311L40.6452 29.257C40.9101 29.0099 41.0883 28.681 41.1526 28.3208C41.1628 28.1679 41.1203 28.0162 41.0324 27.8919C40.9853 27.8412 40.9278 27.8019 40.864 27.7766C40.8002 27.7513 40.7317 27.7407 40.6635 27.7456C40.5952 27.7505 40.5288 27.7707 40.4691 27.8048C40.4094 27.8389 40.3579 27.8861 40.3182 27.9429C40.2194 28.0861 40.1691 28.2582 40.1746 28.4332H39.1734C39.1722 28.1722 39.2402 27.9158 39.3703 27.691C39.5014 27.466 39.6908 27.2822 39.9176 27.1599C40.1572 27.0312 40.4245 26.9656 40.6953 26.9693C41.0799 26.9475 41.4593 27.0685 41.7633 27.3097C41.891 27.4268 41.991 27.5718 42.0557 27.734C42.1205 27.8962 42.1483 28.0712 42.1372 28.2459C42.1372 28.4172 42.1054 28.587 42.0437 28.7464C41.9695 28.9297 41.8707 29.1015 41.75 29.257C41.554 29.5112 41.341 29.7512 41.1125 29.9753L40.5618 30.6221H42.2306L42.254 31.3881Z" fill="#ffffff"/>
<path d="M45.7322 31.3881H42.7617V30.7311L44.1335 29.257C44.3997 29.011 44.5782 28.6817 44.6408 28.3208C44.651 28.1679 44.6085 28.0162 44.5206 27.8919C44.4788 27.8442 44.4273 27.8063 44.3696 27.781C44.312 27.7557 44.2496 27.7436 44.1869 27.7455C44.1145 27.7451 44.0431 27.7629 43.9791 27.7974C43.915 27.8318 43.8603 27.8818 43.8197 27.943C43.722 28.0865 43.6728 28.2586 43.6795 28.4332H42.6783C42.6764 28.1723 42.7445 27.9158 42.8751 27.6914C43.0056 27.467 43.1938 27.2833 43.4192 27.16C43.6601 27.0316 43.9284 26.9661 44.2002 26.9693C44.5838 26.9475 44.9622 27.0684 45.2649 27.3098C45.3926 27.4268 45.4925 27.5719 45.5573 27.734C45.622 27.8962 45.6499 28.0712 45.6387 28.2459C45.6387 28.4173 45.607 28.587 45.5453 28.7464C45.4724 28.9296 45.3746 29.1015 45.2549 29.257C45.0579 29.5104 44.845 29.7503 44.6174 29.9753L44.0634 30.6222H45.7322V31.3881Z" fill="#ffffff"/>
</g>
<defs>
<clipPath id="clip0_7524_26126">
<rect width="78" height="86" fill="white"/>
</clipPath>
</defs>
</svg>
