<svg width="40" height="40" viewBox="0 0 40 40" fill="none" xmlns="http://www.w3.org/2000/svg">
<path d="M19.9992 3.60338C25.3396 3.60338 25.9715 3.62402 28.0808 3.72008C30.0306 3.80899 31.0896 4.13448 31.7945 4.40837C32.7281 4.77117 33.3942 5.20462 34.0944 5.90402C34.7946 6.60421 35.228 7.27027 35.59 8.20386C35.8639 8.90882 36.1894 9.96785 36.2783 11.9176C36.3744 14.0261 36.395 14.6588 36.395 19.9992C36.395 25.3396 36.3744 25.9715 36.2783 28.0808C36.1894 30.0306 35.8639 31.0896 35.59 31.7945C35.2272 32.7281 34.7938 33.3942 34.0944 34.0944C33.3942 34.7946 32.7281 35.228 31.7945 35.59C31.0896 35.8639 30.0306 36.1894 28.0808 36.2783C25.9723 36.3744 25.3396 36.395 19.9992 36.395C14.6588 36.395 14.0261 36.3744 11.9176 36.2783C9.96785 36.1894 8.90882 35.8639 8.20387 35.59C7.27027 35.2272 6.60422 34.7938 5.90402 34.0944C5.20383 33.3942 4.77037 32.7281 4.40837 31.7945C4.13448 31.0896 3.80899 30.0306 3.72008 28.0808C3.62402 25.9723 3.60338 25.3396 3.60338 19.9992C3.60338 14.6588 3.62402 14.0269 3.72008 11.9176C3.80899 9.96785 4.13448 8.90882 4.40837 8.20386C4.77117 7.27027 5.20462 6.60421 5.90402 5.90402C6.60422 5.20383 7.27027 4.77037 8.20387 4.40837C8.90882 4.13448 9.96785 3.80899 11.9176 3.72008C14.0269 3.62402 14.6588 3.60338 19.9992 3.60338ZM19.9992 0C14.5675 0 13.8864 0.0230223 11.7533 0.120668C9.6249 0.217521 8.17132 0.55571 6.89874 1.05029C5.5833 1.56154 4.46791 2.24507 3.35649 3.35728C2.24507 4.4687 1.56075 5.58409 1.05029 6.89874C0.55571 8.17132 0.217521 9.62489 0.120668 11.7533C0.0230223 13.8864 0 14.5675 0 19.9992C0 25.4309 0.0230223 26.112 0.120668 28.2451C0.217521 30.3735 0.55571 31.8271 1.05029 33.0997C1.56154 34.4151 2.24507 35.5305 3.35728 36.6419C4.4695 37.7541 5.58409 38.4377 6.89954 38.9489C8.17132 39.4435 9.62569 39.7817 11.7541 39.8785C13.8872 39.9762 14.5683 39.9992 20 39.9992C25.4317 39.9992 26.1128 39.9762 28.2459 39.8785C30.3743 39.7817 31.8287 39.4435 33.1005 38.9489C34.4159 38.4377 35.5313 37.7541 36.6427 36.6419C37.7549 35.5297 38.4385 34.4151 38.9497 33.0997C39.4443 31.8279 39.7825 30.3735 39.8793 28.2451C39.977 26.112 40 25.4309 40 19.9992C40 14.5675 39.977 13.8864 39.8793 11.7533C39.7825 9.62489 39.4443 8.17052 38.9497 6.89874C38.4385 5.5833 37.7549 4.46791 36.6427 3.35649C35.5305 2.24427 34.4159 1.56075 33.1005 1.0495C31.8271 0.55571 30.3735 0.217521 28.2451 0.120668C26.112 0.0230223 25.4309 0 19.9992 0Z" fill="#190E0A"/>
<path d="M19.9993 9.72949C14.327 9.72949 9.72974 14.3276 9.72974 19.999C9.72974 25.6704 14.3278 30.2685 19.9993 30.2685C25.6707 30.2685 30.2688 25.6704 30.2688 19.999C30.2688 14.3276 25.6715 9.72949 19.9993 9.72949ZM19.9993 26.6651C16.3173 26.6651 13.3331 23.6802 13.3331 19.999C13.3331 16.317 16.3181 13.3329 19.9993 13.3329C23.6804 13.3329 26.6654 16.3178 26.6654 19.999C26.6654 23.681 23.6812 26.6651 19.9993 26.6651Z" fill="#190E0A"/>
<path d="M30.6751 11.7231C32.0006 11.7231 33.075 10.6486 33.075 9.32321C33.075 7.9978 32.0006 6.92334 30.6751 6.92334C29.3497 6.92334 28.2753 7.9978 28.2753 9.32321C28.2753 10.6486 29.3497 11.7231 30.6751 11.7231Z" fill="#190E0A"/>
</svg>
