<svg xmlns="http://www.w3.org/2000/svg" viewBox="0 0 225.48558 49.6282"><defs><style>.cls-1{fill:#fff;}</style></defs><g id="レイヤー_2" data-name="レイヤー 2"><g id="レイヤー_1-2" data-name="レイヤー 1"><path class="cls-1" d="M33.39588,7.03287c0,4.202-3.6898,6.78223-7.3499,6.78223a7.03915,7.03915,0,0,1-7.0387-6.88544,7.203,7.203,0,0,1,14.3886.10321ZM22.80078,2.49173a8.76534,8.76534,0,0,0-.9336,4.40845c0,3.98082,1.7486,6.44312,4.3418,6.44312,4.1195,0,4.3269-5.14565,4.3269-6.75275,0-4.40844-2.2524-5.98605-4.2232-5.98605A3.71041,3.71041,0,0,0,22.80078,2.49173Zm174.9148-.86989A5.5445,5.5445,0,0,0,194.07059.118c-3.141-.08846-4.786,1.54812-4.757,3.59753.03,1.62184,1.349,2.83084,3.557,4.06934,2.252,1.25323,3.497,2.24108,3.497,3.25838,0,1.3417-.83,2.4328-2.741,2.2706a4.75515,4.75515,0,0,1-3.972-3.77445h-.518l.059,3.02255a9.87474,9.87474,0,0,0,4.416,1.2385c3.319.0737,4.742-1.6956,4.742-3.6123,0-1.68083-1.69-2.78663-3.868-4.0841-2.163-1.28272-3.527-2.09364-3.542-3.2879-.014-1.209,1.053-2.418,3.112-2.2116,1.645.16219,2.816,1.19426,3.364,3.47958h.519ZM79.83638,10.6304c-1.45219,2.0199-1.7634,2.3148-4.8307,2.3148h-2.7711V3.14047c0-1.75454.741-2.0789,2.26721-2.0789V.56027H67.68538v.5013c1.52631,0,2.2672.32436,2.2672,2.0789V10.8516c0,1.7545-.74089,2.0789-2.2672,2.0789v.5013h11.6027l1.0373-2.8014Zm54.1162,0c-1.452,2.0199-1.763,2.3148-4.83,2.3148h-2.772V7.254h1.601c1.763,0,2.089.7372,2.089,2.25583h.504V4.49691h-.504c0,1.51863-.326,2.25583-2.089,2.25583h-1.601V1.06157h3.157c1.393,0,1.867.14744,3.23,1.99043h.489l-1.185-2.477h-10.225v.50129c1.526,0,2.267.32437,2.267,2.0789V10.8663c0,1.7545-.741,2.0789-2.267,2.0789v.5013h11.603l1.037-2.8014h-.504Zm-69.2753,0c-1.4522,2.0199-1.7634,2.3148-4.8308,2.3148h-2.771V7.254h1.6004c1.7634,0,2.0894.7372,2.0894,2.25583h.5038V4.49691h-.5038c0,1.51863-.326,2.25583-2.0894,2.25583h-1.6004V1.06157h3.1563c1.3929,0,1.8671.14744,3.2304,1.99043h.489L62.76568.575H52.54108v.50129c1.5263,0,2.2672.32437,2.2672,2.0789V10.8663c0,1.7545-.7409,2.0789-2.2672,2.0789v.5013h11.6027l1.0373-2.8014h-.5038ZM16.16218,1.06157V.56027H9.3309v.5013c1.52628,0,2.26718.32436,2.26718,2.0789V6.75274H4.78168V3.14047c0-1.75454.74092-2.0789,2.2672-2.0789V.56027H.23246v.5013c1.52629,0,2.2672.32436,2.2672,2.0789V10.8516c0,1.7545-.74091,2.0789-2.2672,2.0789v.5013H7.04888v-.4866c-1.52628,0-2.2672-.3244-2.2672-2.0789V7.254h6.8164V10.8663c0,1.7545-.7409,2.0789-2.26718,2.0789v.5013h6.81638v-.5013c-1.5262,0-2.2672-.3244-2.2672-2.0789V3.14047C13.88008,1.38593,14.62108,1.06157,16.16218,1.06157Zm102.3794,0V.56027h-6.816v.5013c1.526,0,2.267.32436,2.267,2.0789V6.75274h-6.816V3.14047c0-1.75454.741-2.0789,2.267-2.0789V.56027h-6.817v.5013c1.527,0,2.268.32436,2.268,2.0789V10.8516c0,1.7545-.741,2.0789-2.268,2.0789v.5013h6.817v-.4866c-1.526,0-2.267-.3244-2.267-2.0789V7.254h6.816V10.8663c0,1.7545-.741,2.0789-2.267,2.0789v.5013h6.816v-.5013c-1.526,0-2.267-.3244-2.267-2.0789V3.14047C116.27458,1.38593,117.01558,1.06157,118.54158,1.06157Zm106.944,0V.56027h-6.816v.5013c1.526,0,2.267.32436,2.267,2.0789V10.8516c0,1.7545-.741,2.0789-2.267,2.0789v.5013h6.816v-.4866c-1.526,0-2.267-.3244-2.267-2.0789V3.14047C223.21858,1.38593,223.95958,1.06157,225.48558,1.06157Zm-56.236,0V.56027h-6.816v.5013c1.526,0,2.267.32436,2.267,2.0789V10.8516c0,1.7545-.741,2.0789-2.267,2.0789v.5013h6.816v-.4866c-1.526,0-2.267-.3244-2.267-2.0789V3.14047C166.98257,1.38593,167.72359,1.06157,169.24959,1.06157ZM48.54018,0h-.5039c-.1778.42757-.4445.56027-3.1859.56027h-4.075c-2.7266,0-3.0081-.1327-3.186-.56027h-.5038l-1.1855,4.09882.415.10321c1.0817-2.4475,1.6003-3.14046,3.3193-3.14046,2.0301,0,2.0301.07372,2.0301,2.0789V10.8516c0,1.7545-.7409,2.0789-2.2672,2.0789v.5013h6.8164v-.4866c-1.5263,0-2.2672-.3244-2.2672-2.0789V3.14047c0-2.01993,0-2.0789,2.0301-2.0789,1.7189,0,2.2524.693,3.3193,3.14046l.4149-.10321Zm50.1599,0h-.5038c-.1778.42757-.44449.56027-3.1859.56027h-4.0751c-2.7265,0-3.00809-.1327-3.1859-.56027h-.5038l-1.1855,4.09882.4149.10321c1.08181-2.4475,1.6004-3.14046,3.3193-3.14046,2.0301,0,2.0301.07372,2.0301,2.0789V10.8516c0,1.7545-.7409,2.0789-2.2672,2.0789v.5013h6.8165v-.4866c-1.5263,0-2.2672-.3244-2.2672-2.0789V3.14047c0-2.01993-.0001-2.0789,2.0301-2.0789,1.7189,0,2.25231.693,3.3193,3.14046l.4149-.10321Zm86.1835,0h-.504c-.178.42757-.445.56027-3.186.56027h-4.075c-2.727,0-3.008-.1327-3.186-.56027h-.504l-1.185,4.09882.415.10321c1.081-2.4475,1.6-3.14046,3.319-3.14046,2.03,0,2.03.07372,2.03,2.0789V10.8516c0,1.7545-.741,2.0789-2.267,2.0789v.5013h6.816v-.4866c-1.526,0-2.267-.3244-2.267-2.0789V3.14047c0-2.01993,0-2.0789,2.03-2.0789,1.719,0,2.253.693,3.32,3.14046l.414-.10321Zm26.287,1.06157c1.527,0,2.268.78143,2.268,2.536V7.888c0,3.55328-1.527,5.30788-3.986,5.30788-3.646,0-3.794-3.45014-3.794-5.2489V2.62443c0-1.22375.622-1.62184,2.371-1.62184V.56027h-7.113v.45706c1.689,0,2.327.35386,2.327,1.48914V8.6842c0,3.745,2.889,5.1309,5.734,5.1309,4.046,0,4.979-3.1405,4.979-5.76489V4.05459c0-1.75453.741-2.993,2.268-2.993V.56027h-5.039v.5013Zm-51.997,0V.56027h-4.297l-4.223,10.247-4.15-10.247h-4.001v.5013c1.527,0,2.268.32436,2.268,2.0789V9.95218c0,1.75452-.741,2.993-2.268,2.993v.5013h5.039v-.5013c-1.527,0-2.268-.7814-2.268-2.536V2.74238h.06l4.312,10.70412h.548l4.401-10.79259h.045V10.8663c0,1.7545-.741,2.0789-2.268,2.0789v.5013h6.817v-.5013c-1.526,0-2.267-.3244-2.267-2.0789V3.14047C156.90659,1.38593,157.64758,1.06157,159.17358,1.06157Zm-41.669,43.47993a5.40038,5.40038,0,1,1-5.557-5.1751A5.27154,5.27154,0,0,1,117.50459,44.5415Zm-7.943-3.4058a6.54838,6.54838,0,0,0-.696,3.3026c0,2.9783,1.304,4.8213,3.26,4.8213,3.082,0,3.245-3.8629,3.245-5.0719,0-3.3027-1.689-4.4822-3.171-4.4822A2.79933,2.79933,0,0,0,109.56158,41.1357Zm54.873,3.4058a5.40038,5.40038,0,1,1-5.557-5.1751A5.2718,5.2718,0,0,1,164.43459,44.5415Zm-7.943-3.4058a6.53765,6.53765,0,0,0-.697,3.3026c0,2.9783,1.304,4.8213,3.26,4.8213,3.083,0,3.246-3.8629,3.246-5.0719,0-3.3027-1.69-4.4822-3.171-4.4822A2.79819,2.79819,0,0,0,156.49158,41.1357Zm-16.626-1.8725h-.371c-.133.3244-.34.4276-2.385.4276h-3.053c-2.045,0-2.252-.1032-2.386-.4276h-.385l-.889,3.0667.311.0885c.8-1.843,1.2-2.359,2.49-2.359,1.526,0,1.526.0589,1.526,1.5628v5.7797c0,1.3122-.563,1.5628-1.704,1.5628v.3686h5.112v-.3686c-1.141,0-1.704-.2506-1.704-1.5628V41.6222c0-1.5039,0-1.5628,1.526-1.5628,1.289,0,1.69.5307,2.49,2.359l.311-.0885Zm-49.24141.4276v.3686c1.1706.1179,1.2743.4275.53341,1.5628l-1.68931,2.5507L87.779,41.6222c-.7557-1.1353-.652-1.4449.5335-1.5628v-.3686h-4.4899v.3686a2.12846,2.12846,0,0,1,2.0597,1.2532l2.119,3.1994v2.8899c0,1.3122-.5631,1.5628-1.7041,1.5628v.3686h5.1123v-.3686c-1.141,0-1.7041-.2506-1.7041-1.5628V44.512l2.119-3.1994a2.14122,2.14122,0,0,1,2.05981-1.2532v-.3686Zm-21.205,7.7258-3.2897-3.4796c.7409-.8699,1.2151-1.4301,1.9412-2.3295a3.5789,3.5789,0,0,1,2.6377-1.5629V39.676h-3.3786v.3686c.815.118,1.0076.4423.2519,1.5629-1.5263,1.9462-2.0894,2.5949-2.934,2.7129V41.6075c0-1.3122.5631-1.5629,1.7041-1.5629V39.676h-5.1123v.3686c1.141,0,1.7041.2507,1.7041,1.5629v5.7944c0,1.3122-.5631,1.5628-1.7041,1.5628v.3686h5.1123v-.3686c-1.141,0-1.7041-.2506-1.7041-1.5628V44.689c.4149,0,1.8374,1.5333,2.934,2.7129,1.24471,1.3122,1.3929,1.5628.2519,1.5628v.3686h3.9268v-.3686A4.20871,4.20871,0,0,1,69.41918,47.4166ZM5.01877,26.318c-1.48183,0-3.6453-.0885-4.94931-.2359-.07409,0-.08891.0295-.04445.0737a2.23,2.23,0,0,0,2.25238.7962,19.834,19.834,0,0,1,2.74138-.1475H217.17258c1.689,0,4.282.0443,7.083.118.548.0147,1.23,0,1.23-.3539s-.682-.3686-1.23-.3538c-2.801.0737-5.394.1179-7.083.1179Z"/></g></g></svg>