<svg width="188" height="63" viewBox="0 0 188 63" fill="none" xmlns="http://www.w3.org/2000/svg">
<g clip-path="url(#clip0_7330_25301)">
<path d="M153.529 26.0833H153.612C153.971 26.0977 154.329 26.1429 154.68 26.2184C154.925 26.3055 155.016 26.7193 155.016 26.9763C155 27.3227 154.901 27.6602 154.728 27.9608L151.85 33.0969L148.653 27.5034C148.549 27.3246 148.492 27.1223 148.488 26.9154C148.488 26.7019 148.618 26.2706 148.88 26.2009C149.166 26.132 149.458 26.0969 149.752 26.0964H150.031V25.6172H143.926V26.092H144C144.459 26.1304 144.901 26.2859 145.283 26.5437C145.665 26.8015 145.974 27.153 146.18 27.5644L150.175 34.064V37.6665C150.194 37.8408 150.177 38.017 150.125 38.1842C150.072 38.3515 149.985 38.506 149.87 38.638C149.589 38.8909 149.259 39.0831 148.9 39.2023C148.541 39.3215 148.162 39.3652 147.785 39.3306H147.694V39.897H154.802V39.335H154.711C152.674 39.2958 152.338 38.8166 152.321 37.6709V33.8723L155.64 28.1264C156.543 26.6409 156.804 26.1748 158.187 26.0964H158.274V25.6172H153.529V26.0833Z" fill="black"/>
<path d="M171.588 26.1661H171.676C173.268 26.2053 173.734 26.8674 173.752 28.1307V35.1269C173.752 36.4337 173.555 37.1917 173.076 37.8059C172.378 38.7164 171.083 39.2392 169.517 39.2392C168.257 39.2392 167.136 38.8863 166.525 38.2938C165.915 37.7014 165.557 36.5514 165.557 35.0485V28.0523C165.596 26.6496 165.779 26.2271 167.738 26.1661H167.825V25.6172H161.209V26.1617H161.296C163.276 26.2445 163.394 26.7063 163.394 28.0436V34.578C163.394 36.5862 163.616 37.6273 164.223 38.4376C165.069 39.6007 166.883 40.2193 168.981 40.2193C171.078 40.2193 172.709 39.5659 173.673 38.381C174.349 37.5446 174.589 36.5296 174.589 34.4996V28.1699C174.589 26.9153 175.082 26.2271 176.704 26.1661H176.791V25.6172H171.588V26.1661Z" fill="black"/>
<path d="M187.908 26.1486H188V25.6172H180.848V26.1661H180.939C182.95 26.2053 183.251 26.6758 183.229 27.8694V37.4662C183.229 38.7731 182.845 39.3263 180.939 39.3263H180.848V39.8926H188V39.3263H187.908C186.02 39.3524 185.658 38.8079 185.636 37.4662V27.8519C185.636 26.7542 185.92 26.1486 187.908 26.1486Z" fill="black"/>
<path d="M31.0723 14.8622C31.0737 14.8405 31.0737 14.8186 31.0723 14.7969C31.0984 14.8187 31.0723 14.8404 31.0723 14.8622Z" fill="black"/>
<path d="M21.7876 18.0692C21.8123 18.0129 21.8257 17.9522 21.8268 17.8906C21.8245 17.9511 21.8097 18.0104 21.7832 18.0649L21.7876 18.0692Z" fill="black"/>
<path d="M18.5645 28.2734C18.5685 28.2994 18.5685 28.3259 18.5645 28.3518C18.5689 28.3259 18.5689 28.2994 18.5645 28.2734Z" fill="black"/>
<path d="M60.4274 17.986C60.3608 17.7584 60.2747 17.5368 60.1701 17.3239C60.1352 17.2411 60.1047 17.1714 60.0829 17.1104C59.9172 16.8926 59.263 16.1346 59.0144 15.8733C58.9359 15.8297 58.8487 15.7687 58.7571 15.7077C58.6655 15.6467 58.5827 15.5901 58.5216 15.5596C58.3168 15.4568 58.1263 15.328 57.9547 15.1763L57.6668 14.8887C57.4637 14.8559 57.2744 14.7651 57.1217 14.6274L57.0476 14.6012C56.8733 14.5763 56.7075 14.5107 56.5635 14.4096L56.4283 14.3311L56.3541 14.2963L56.2931 14.2397C56.1799 14.1426 56.0536 14.062 55.918 14.0001C55.7375 13.9322 55.5637 13.8476 55.399 13.7474C55.2295 13.6508 55.0548 13.5635 54.8757 13.486L54.758 13.4207C54.5957 13.2953 54.4236 13.1832 54.2433 13.0853C54.0846 13.0787 53.932 13.0223 53.8072 12.9241C53.3903 12.8394 53.0035 12.6454 52.6864 12.3621L52.621 12.2837C52.2953 11.4954 52.074 10.668 51.9625 9.82243V9.70918C51.8749 9.63575 51.8039 9.54456 51.7543 9.44167C51.7047 9.33878 51.6775 9.22653 51.6746 9.11236C51.4954 8.44966 51.262 7.80278 50.9769 7.1782L50.9332 7.10414C50.8853 7.0083 50.8373 6.91682 50.8024 6.82969C50.6837 6.7808 50.5805 6.70071 50.5037 6.59794C50.4269 6.49516 50.3794 6.37353 50.3663 6.24596C50.3455 6.20982 50.3207 6.17619 50.2922 6.14576C50.168 6.11714 50.0572 6.04726 49.978 5.94754C49.8987 5.84783 49.8557 5.72419 49.856 5.59688C49.7674 5.56701 49.6879 5.51485 49.6253 5.44542C49.5627 5.37599 49.519 5.29164 49.4984 5.20046L49.4156 5.14383L49.3414 5.07849C49.1498 4.90041 49.0212 4.66498 48.9751 4.40762C48.9604 4.36265 48.9366 4.32115 48.9053 4.28565L48.8486 4.22901L48.7701 4.07654C48.6151 3.80265 48.4963 3.50978 48.4169 3.20529C48.3197 2.94862 48.1924 2.70441 48.0375 2.47781C47.9117 2.36116 47.7991 2.23115 47.7016 2.0901C47.4574 2.00733 47.2655 1.75031 46.8992 1.25805V1.22321C46.7727 1.00975 46.6113 0.787587 46.4631 0.600269L46.2843 0.35196C46.2101 0.277903 46.136 0.203846 46.0967 0.173352C45.8601 0.161769 45.6278 0.105602 45.412 0.0078125C45.3684 0.0078125 45.2899 0.0600917 45.1722 0.121079L45.1068 0.147216C45.0214 0.175733 44.9383 0.210679 44.8582 0.251761L44.832 0.277898C44.5817 0.866276 44.379 1.47374 44.2258 2.09446C44.2235 2.36798 44.1641 2.63803 44.0514 2.8873C44.1605 3.41718 44.1943 3.95979 44.1517 4.4991C44.1517 4.93472 44.1517 5.69707 44.1909 5.90181C44.2744 6.14689 44.3099 6.40569 44.2956 6.66415C44.4272 6.89838 44.4792 7.16894 44.4439 7.43522V8.62882C44.5183 9.01694 44.4711 9.41854 44.3087 9.77888C44.3803 9.88181 44.4187 10.0042 44.4187 10.1296C44.4187 10.2549 44.3803 10.3773 44.3087 10.4802L44.2869 10.5151V10.5412C44.1855 11.1224 43.9895 11.683 43.7068 12.2009C43.528 12.3752 43.31 12.4013 42.9175 12.4405L42.4813 12.4885C42.2153 12.5233 41.8969 12.5712 41.6091 12.6148C41.2515 12.6714 41.0727 12.6975 40.9637 12.7063H40.8895C40.6408 12.8078 40.3639 12.8171 40.1089 12.7324H39.7164C39.5071 12.7324 39.2803 12.7324 39.0055 12.7324C38.6784 12.7324 38.3775 12.7324 38.1333 12.7542C37.8101 12.7972 37.4818 12.7794 37.1651 12.7019H36.934C36.6616 12.7071 36.3891 12.694 36.1185 12.6627L35.4032 12.6017L34.0687 13.1332L33.5018 13.3684C32.551 13.7648 32.2676 13.8912 32.0539 14.183L32.0015 14.2484L31.923 14.3355C31.7881 14.5061 31.6106 14.6383 31.4084 14.7189C31.3349 14.7538 31.2635 14.793 31.1947 14.8365C31.092 14.9533 30.9485 15.0266 30.7935 15.0412C30.7459 15.0782 30.6948 15.1103 30.6409 15.1371L30.5318 15.2198C30.3302 15.3843 30.1014 15.5125 29.8559 15.5988C29.686 15.6683 29.5201 15.7468 29.3587 15.8341C29.318 15.9455 29.2428 16.0411 29.1439 16.1069C29.0451 16.1727 28.9278 16.2053 28.8092 16.2L28.6173 16.2915L28.4821 16.3655C28.338 16.4672 28.1723 16.5343 27.998 16.5615H27.9675C27.8384 16.712 27.6583 16.8098 27.4616 16.836C26.9995 17.1491 26.49 17.3859 25.9526 17.5373L25.9308 17.5591C25.8084 17.6946 25.6602 17.8042 25.4947 17.8815L25.4642 17.9338L25.4075 17.9947C25.2315 18.1786 25.015 18.3188 24.7751 18.4042C24.6697 18.4575 24.575 18.5299 24.496 18.6177C24.1091 18.9928 23.6211 19.2471 23.0917 19.3495C22.993 19.3862 22.9003 19.4376 22.817 19.502C22.7738 19.5773 22.7148 19.6424 22.644 19.6928C22.5733 19.7432 22.4924 19.7777 22.407 19.7939C22.2285 19.8966 22.0592 20.0147 21.9011 20.1467C21.8713 20.2368 21.817 20.3167 21.7441 20.3776C21.9638 20.6189 22.1355 20.8998 22.25 21.2053C22.3535 21.3338 22.4721 21.4494 22.6033 21.5494C22.7344 21.6431 22.8583 21.7465 22.974 21.8587C23.2687 21.8899 23.5417 22.0279 23.7415 22.2464L23.8331 22.3336C23.9853 22.3748 24.1318 22.4348 24.2692 22.5122C24.3258 22.5173 24.3828 22.5173 24.4393 22.5122C24.5995 22.4605 24.7719 22.4605 24.9321 22.5122H24.9801C25.0991 22.5382 25.2203 22.5528 25.3421 22.5557C25.6468 22.5412 25.9521 22.569 26.2492 22.6385C27.2322 22.7604 28.2292 22.7058 29.193 22.4773C29.5436 22.2852 29.9239 22.1527 30.3181 22.0853L31.4128 21.7803C32.9356 21.3248 34.4957 21.0041 36.0748 20.8219C36.2301 20.8203 36.3848 20.8042 36.5371 20.774C36.6374 20.774 36.7116 20.7523 36.7508 20.7479C37.5507 20.6946 38.3541 20.7458 39.1407 20.9004C40.3139 21.092 40.9637 21.3883 41.0858 21.7716C41.112 21.8672 41.112 21.9679 41.0858 22.0635C41.0986 22.09 41.1088 22.1178 41.1163 22.1462C41.3126 22.5383 41.3736 22.8433 41.3736 25.3742C41.3736 25.775 41.4085 26.1845 41.4303 26.4023C41.4303 26.4284 41.4303 26.4546 41.4303 26.4764C41.5698 26.8638 41.6449 27.2714 41.6527 27.683C41.6576 27.8045 41.6888 27.9234 41.7443 28.0315C41.8969 28.3365 42.0496 29.2992 41.7181 29.6303C41.6087 29.7197 41.4767 29.7772 41.3367 29.7964C41.1966 29.8156 41.0539 29.7958 40.9244 29.7392C40.7377 29.6922 40.5484 29.6558 40.3575 29.6303C39.7513 29.5431 39.2846 29.4909 39.1931 29.4909C39.0071 29.4995 38.8244 29.4407 38.6784 29.3253C38.4911 29.2834 38.299 29.2658 38.1071 29.2731C37.9634 29.2745 37.8213 29.2417 37.6928 29.1772H37.2349L36.7988 28.8854C36.478 28.441 36.2523 27.9353 36.1359 27.3999C36.0106 27.2726 35.9075 27.1254 35.8306 26.9643C35.8219 26.9488 35.8117 26.9342 35.8001 26.9207C35.6327 26.8447 35.4838 26.7332 35.364 26.594H35.2113C35.1388 26.5883 35.0659 26.5883 34.9933 26.594C34.943 26.6349 34.895 26.6786 34.8494 26.7247L34.7752 26.79L34.5484 26.9425C34.3964 27.0573 34.2361 27.1607 34.0687 27.2518C33.9879 27.2917 33.9142 27.3447 33.8507 27.4086C33.6377 27.6004 33.4134 27.7794 33.179 27.9444C33.0697 28.1371 32.9211 28.3048 32.7429 28.4367C32.7164 28.5318 32.6687 28.6196 32.6034 28.6937C32.5673 28.8772 32.5526 29.0644 32.5598 29.2513C32.5598 29.5039 32.5598 29.7261 32.5598 29.8437C32.6864 29.9769 32.7766 30.1404 32.8214 30.3186C32.8214 30.3186 32.865 30.3665 32.9087 30.4057C33.0245 30.5008 33.1139 30.6241 33.1681 30.7637C33.2224 30.9034 33.2396 31.0546 33.2183 31.2029C33.3678 31.4114 33.4389 31.6659 33.4189 31.9216C33.4248 32.0359 33.4394 32.1494 33.4625 32.2615C33.4625 32.3312 33.4843 32.3921 33.4887 32.4357C33.497 32.474 33.5071 32.5117 33.5192 32.549C33.5963 32.7901 33.6575 33.036 33.7024 33.2852C33.7161 33.7013 33.8187 34.1098 34.0033 34.4831C34.1844 34.8004 34.3376 35.1327 34.4612 35.4764V35.5156C34.5679 35.8237 34.7145 36.1166 34.8973 36.3868C35.0195 36.5166 35.1223 36.6633 35.2026 36.8224L35.2506 36.8529C35.4613 36.9686 35.6386 37.1366 35.7652 37.3408C35.9833 37.5499 36.0748 37.5412 36.2885 37.4715H36.3278C36.6047 37.405 36.8892 37.3757 37.1738 37.3844H37.2916L37.4355 37.4541L37.7713 37.245C38.1847 36.936 38.6816 36.7584 39.1974 36.7353C39.6539 36.7482 40.1085 36.6727 40.5363 36.5131C41.1458 36.2531 41.7914 36.0872 42.4508 36.0209C42.6067 35.8752 42.813 35.7955 43.0265 35.7987C43.262 35.7987 44.3348 35.655 44.6139 35.655C44.7491 35.655 46.5111 35.2193 47.1914 35.0843C47.7508 35.0107 48.3152 34.983 48.8792 35.0015H48.9402C49.2002 34.9634 49.4625 34.943 49.7252 34.9406C50.7675 34.8621 52.2503 34.1477 52.4902 34.1477C52.7015 34.0709 52.9046 33.9731 53.0964 33.8558C53.4013 33.6681 53.7298 33.5216 54.0733 33.4202H54.0951C54.8201 33.1304 55.5726 32.9144 56.341 32.7755C56.6332 32.562 57.2133 32.7755 57.2133 32.7755C57.3007 32.82 57.3951 32.8495 57.4924 32.8626H57.5665C57.7089 32.703 57.8787 32.5702 58.0681 32.4705C58.076 32.2609 58.1343 32.0561 58.2381 31.8737C58.1459 31.5378 58.112 31.1887 58.1378 30.8413C58.1378 30.2576 58.1378 30.2576 57.2045 29.3253L56.6507 28.7765L55.9573 28.6675C55.2377 28.4715 55.1417 28.4759 54.9106 28.5238C54.6009 28.5984 54.2827 28.6321 53.9642 28.624C53.5205 28.8441 53.0334 28.9631 52.5381 28.9725H51.5264L51.8273 27.7615C51.8739 27.5932 51.9292 27.4274 51.993 27.2648C51.993 27.23 52.0192 27.1995 52.0322 27.1734V27.0252L52.102 26.9512V26.8728C52.1165 26.6544 52.1546 26.4383 52.2154 26.228C52.2503 26.0756 52.2895 25.91 52.3201 25.7445C52.3201 25.4396 52.3811 24.9909 52.4248 24.6293C52.4466 24.4594 52.464 24.3244 52.464 24.2677C52.464 23.3007 52.6384 23.0349 52.73 22.9347C52.9019 22.7312 53.1274 22.5797 53.3809 22.4974C53.6344 22.415 53.906 22.405 54.1648 22.4686H54.4788C54.517 22.4344 54.5614 22.4077 54.6097 22.3902C54.6934 22.3566 54.7838 22.3426 54.8737 22.3494C54.9637 22.3562 55.0509 22.3836 55.1286 22.4294C55.6254 22.4247 56.1205 22.3722 56.6071 22.2726H56.7292C57.0799 22.2646 57.4289 22.3222 57.7584 22.4425L58.0157 22.5165L58.0942 22.473L58.2861 22.351C58.4344 22.2552 58.6219 22.1375 58.8138 22.0373C58.9992 21.961 59.1725 21.8583 59.3284 21.7324C59.4399 21.4912 59.5869 21.268 59.7645 21.0703C60.0258 20.7711 60.1874 20.398 60.2268 20.003C60.3072 19.688 60.4182 19.3816 60.5583 19.0882C60.5844 19.0359 60.628 18.9488 60.6455 18.9008V18.622V18.5828C60.5902 18.4092 60.5247 18.239 60.4492 18.0732L60.4274 17.986Z" fill="black"/>
<path d="M57.2653 43.8818C57.2653 43.6988 57.0124 43.4113 56.6373 42.9583C56.4299 42.7107 56.2404 42.4487 56.0704 42.1742C56.0671 42.1028 56.037 42.0354 55.986 41.9853C55.9351 41.9352 55.8671 41.9062 55.7956 41.9041C55.7956 41.9041 55.7695 41.9258 55.6822 41.7559C55.2779 41.0456 54.7659 40.4019 54.1646 39.8479C53.6456 39.3469 53.4624 39.2293 53.1746 39.2293C53.0568 39.2293 51.6962 38.1141 51.3429 38.0793V38.0488C51.3286 38.0146 51.3126 37.9812 51.2949 37.9486C51.1161 37.4215 50.1959 36.9946 49.4153 36.8552C49.3716 36.8323 49.3229 36.8203 49.2735 36.8203C49.2242 36.8203 49.1755 36.8323 49.1318 36.8552C49.1059 36.8702 49.0832 36.8902 49.0652 36.9142C49.0472 36.9382 49.0343 36.9655 49.0271 36.9946H48.9792C48.796 36.9946 48.6913 36.9946 48.434 37.2516C48.2905 37.4066 48.1279 37.5428 47.95 37.6567L47.8453 37.7003C47.7668 37.7351 47.6534 37.7787 47.6577 37.8963C47.2324 38.4521 46.7452 38.9578 46.2055 39.4036C45.3725 40.0744 44.4261 40.8368 43.8156 41.3508C42.9923 42.0514 42.0396 42.5841 41.0114 42.9191L40.7192 43.0323L40.5578 42.8755C40.5022 42.8246 40.444 42.7766 40.3834 42.7317C40.3485 42.7012 40.3005 42.6664 40.2962 42.6795V42.6403C40.1423 42.2947 39.8765 42.0108 39.5417 41.8344C39.4906 41.7881 39.4425 41.7387 39.3978 41.6863C39.3486 41.6241 39.2946 41.5658 39.2364 41.512C39.1913 41.4621 39.1532 41.4065 39.123 41.3465C39.0881 41.2811 39.0401 41.1853 38.9224 41.1853C38.8461 41.1338 38.7758 41.0739 38.7131 41.0067C38.2769 40.5711 37.8408 40.3619 37.5922 40.4752L37.5573 40.5013L37.2521 40.7279C36.9729 40.937 36.5848 41.2245 36.4365 41.3682C36.4046 41.4031 36.3809 41.4447 36.3673 41.49C36.3537 41.5352 36.3506 41.583 36.358 41.6296C36.3604 41.7307 36.3502 41.8317 36.3275 41.9302C36.2211 42.3256 36.1611 42.732 36.1487 43.1412C36.1487 43.3808 36.1705 43.7032 36.1705 44.1257C36.1936 44.7358 36.1483 45.3466 36.0353 45.9466C35.8696 46.2647 35.8739 46.3823 35.9481 47.2535C36.0175 47.5854 36.0175 47.928 35.9481 48.2598V48.3164C35.9481 48.4515 35.8696 48.9045 35.7998 49.314C35.7083 50.1009 35.76 50.8979 35.9525 51.6664C36.1007 52.3155 36.1836 52.4418 36.4104 52.5376C36.5717 52.5899 36.7026 52.7424 37.0078 53.4873C37.1866 53.8314 37.2957 53.9926 37.444 54.0188C37.5922 54.0449 37.758 53.9186 37.9237 53.753L38.1548 53.6049L38.0938 54.572C38.0635 54.8847 38.0504 55.1988 38.0545 55.513C38.0545 55.6698 37.8626 56.3494 37.9673 56.4495C37.8286 57.3036 37.8286 58.1744 37.9673 59.0285C37.9623 59.0558 37.9623 59.0839 37.9673 59.1112C37.9673 59.2288 38.1854 59.9258 38.1897 59.9825C38.1897 60.1916 38.8701 61.0846 38.9747 61.2371C39.0576 61.3155 39.2059 61.3286 39.7074 61.3634C39.9036 61.3634 40.1435 61.3939 40.4008 61.42C41.8269 61.5551 42.1453 61.6248 42.3372 61.7424C42.4628 61.8567 42.6115 61.9429 42.7733 61.9951C42.9739 62.0648 43.5845 62.0691 45.2024 62.0691C46.0582 62.0732 46.9125 62.1417 47.7581 62.2738C47.9681 62.3459 48.1908 62.374 48.4122 62.3566C48.5082 62.3566 48.6434 62.3566 48.7829 62.3871C48.9578 62.4124 49.134 62.427 49.3106 62.4307C49.9172 62.4365 50.523 62.3869 51.1205 62.2826C51.5086 62.2434 51.875 62.178 52.141 62.1301C52.2676 62.1021 52.3957 62.0817 52.5248 62.0691C52.5942 62.08 52.6651 62.0758 52.7328 62.0571C52.8005 62.0383 52.8634 62.0053 52.9173 61.9602C53.1044 61.8146 53.3154 61.7025 53.5409 61.6291C54.4132 61.3285 54.8493 61.1064 55.1807 60.6272C55.2742 60.4547 55.3917 60.2963 55.5296 60.1567C55.8945 59.6718 56.0919 59.0818 56.0922 58.4752C56.1016 58.1509 56.0753 57.8266 56.0137 57.5081C55.9622 57.2809 55.9388 57.0483 55.9439 56.8155C55.8791 56.4587 55.7768 56.1097 55.6386 55.7743C55.2723 54.4195 55.2723 54.1582 55.2723 52.1282C55.3726 49.314 55.5558 48.1204 55.6779 47.9549C55.8209 47.7717 55.9315 47.5654 56.005 47.345C56.0935 47.1236 56.2254 46.9222 56.3931 46.7526H56.428C56.4621 46.7168 56.4986 46.6834 56.537 46.6524C56.6003 46.6159 56.6538 46.5648 56.6933 46.5034C56.7327 46.442 56.7569 46.3721 56.7638 46.2995C56.8222 46.1142 56.9171 45.9424 57.0429 45.7942V45.7637C57.1336 45.5447 57.1867 45.312 57.1999 45.0754C57.1999 44.9273 57.1999 44.9055 57.2348 44.875C57.3526 44.7312 57.3133 44.0952 57.2653 43.8818ZM51.4258 45.6504C51.1024 46.8861 50.684 48.0949 50.1741 49.2661L49.6857 50.2288L49.1972 50.5817C48.5145 50.914 47.7742 51.1122 47.0167 51.1654C46.5836 51.188 46.1562 51.2731 45.7476 51.4181C44.7029 51.6759 43.6233 51.7627 42.5509 51.6751C42.0014 51.6316 41.9098 51.5662 41.8662 51.4834C41.8719 51.2017 41.8981 50.9207 41.9447 50.6427C42.0493 50.2811 42.3459 49.6887 42.3546 49.5885C42.3633 49.4883 42.8125 48.7608 43.1178 48.2511C43.4231 47.7414 44.2822 46.7918 44.352 46.7003C44.6787 46.2315 45.0724 45.8132 45.5208 45.4588C46.745 44.4947 47.8858 43.4295 48.9312 42.2743C49.1318 42.1001 49.4153 41.8387 49.5723 41.7429V41.7647C49.5826 41.8585 49.6046 41.9507 49.6377 42.0391C49.7169 42.2128 49.8229 42.373 49.9517 42.5139C49.9972 42.6567 50.0336 42.8022 50.0607 42.9496C50.2026 43.1102 50.3604 43.2562 50.5317 43.3852C50.8239 43.5594 50.9679 44.0996 51.2208 44.422C51.3562 44.8174 51.4254 45.2325 51.4258 45.6504Z" fill="black"/>
<path d="M30.3011 55.3442C30.1408 54.5969 29.7977 53.901 29.3024 53.3185C29.2282 53.2183 29.141 53.1138 29.0625 53.0179C28.984 52.9221 28.9273 52.8611 28.9099 52.8306C28.7466 52.5915 28.5464 52.3798 28.3168 52.2033C28.1772 52.077 28.0159 51.9332 27.8589 51.7677C27.5728 51.4989 27.3088 51.2075 27.0695 50.8964C26.9896 50.7082 26.8461 50.554 26.6639 50.4608L26.629 50.3911L26.6072 50.3563C26.3979 50.0165 25.4035 49.1452 24.8409 49.0494C24.6761 48.9199 24.4748 48.8452 24.2653 48.8359C23.7332 48.8359 23.5588 49.3021 23.4454 49.6026C23.3104 49.9123 23.2534 50.2504 23.2797 50.5872C23.2925 50.8679 23.3653 51.1427 23.4933 51.393L23.5151 51.4279C23.5303 51.9838 23.6153 52.5355 23.7681 53.0702C23.9033 53.7193 24.1126 54.6254 24.2522 55.0654L24.3481 55.3398C24.3462 55.3484 24.3462 55.3573 24.3481 55.3659C24.2752 55.5734 24.2661 55.798 24.322 56.0107V56.1065L24.3481 56.1849C24.4353 56.3897 24.5634 56.5746 24.7247 56.7281C24.8859 56.8817 25.0768 57.0007 25.2858 57.0779C25.4166 57.2914 25.796 57.8795 26.3412 57.8664C26.4483 57.8859 26.5534 57.915 26.6552 57.9535H26.6944C26.9946 58.0548 27.3112 58.0991 27.6277 58.0842C27.9386 58.0846 28.2477 58.0361 28.5436 57.9405C29.2635 57.6547 29.8407 57.0955 30.1485 56.3853C30.2746 56.0715 30.3311 55.7341 30.3142 55.3964L30.3011 55.3442Z" fill="black"/>
<path d="M4.96234 49.7086C4.94053 49.7783 5.05392 49.8916 5.11933 49.9178C5.25889 49.9657 5.36792 50.0789 5.55545 50.4492C5.62938 50.6597 5.74177 50.8547 5.8869 51.0242C5.95232 51.0504 5.8869 51.1854 5.8869 51.2551C5.79095 51.5252 6.07007 53.7687 6.08316 54.3872C6.08316 54.8229 6.08315 55.4589 6.10496 55.6201C6.17247 55.8977 6.17247 56.1875 6.10496 56.4652C6.10496 56.6917 6.04826 57.0576 6.04389 57.2842C6.03953 57.5107 6.12676 57.698 6.04389 57.6719C5.95231 57.7154 5.99592 57.8069 6.01773 57.9681C6.0427 58.0673 6.03191 58.1722 5.98721 58.2643C5.9654 58.334 6.00901 58.4255 6.03081 58.5867C6.05375 58.6602 6.0586 58.7382 6.04493 58.8141C6.03127 58.8899 5.9995 58.9613 5.95231 59.0223C5.86073 59.0659 5.78659 59.2706 5.76042 59.5668C5.77402 59.7418 5.76227 59.9179 5.72554 60.0896C5.72554 60.1593 5.65576 60.2943 5.72554 60.3204C5.79532 60.3466 5.72554 60.4773 5.69501 60.6167C5.6322 60.8544 5.59709 61.0985 5.59035 61.3442C5.60536 61.5179 5.58318 61.6928 5.52528 61.8573C5.46738 62.0218 5.37508 62.1721 5.25453 62.2982C4.86905 62.5967 4.42228 62.8065 3.94619 62.9124C3.86385 62.9611 3.77113 62.9897 3.67563 62.9958C3.58012 63.0018 3.48454 62.9852 3.39669 62.9473C3.30397 62.9041 3.19899 62.8948 3.10013 62.9211C3.00133 62.9407 2.89955 62.9395 2.80122 62.9178C2.70288 62.896 2.61012 62.8542 2.52882 62.7948C1.59348 62.1164 0.96604 61.0948 0.784361 59.9545C0.710383 59.5114 0.57995 59.0795 0.396227 58.6694C-0.0398871 57.7503 -0.131478 57.5673 0.13019 57.0446C0.317719 56.7309 0.317724 56.7309 0.230501 56.5436C0.143279 56.3563 0.0953098 56.2691 0.356978 55.7464C0.47909 55.4066 0.758203 55.0494 0.793092 54.91C1.04763 54.5251 1.24862 54.1074 1.39057 53.6685C1.55124 53.2366 1.74971 52.8197 1.98367 52.4226C2.34299 51.9857 2.62205 51.4886 2.80794 50.9545C2.80794 50.5189 3.2833 50.0484 4.22531 49.7696C4.60036 49.6564 4.85331 49.5779 4.96234 49.7086Z" fill="black"/>
<path d="M27.9993 42.2939C27.9993 42.2677 27.9774 42.2416 27.9644 42.2111L27.8728 41.9715C27.769 41.8006 27.6509 41.6388 27.5195 41.488C26.9719 40.6605 26.5583 39.752 26.2941 38.7958L25.9408 37.8026C25.8448 37.5906 25.7787 37.3663 25.7445 37.1361C25.632 36.923 25.4944 36.7241 25.3346 36.5436C24.8113 35.8249 24.4188 35.7377 24.1309 35.7464C23.8609 35.7591 23.5951 35.6758 23.3808 35.5112C23.254 35.5058 23.1274 35.5281 23.0101 35.5765C22.978 35.743 22.9358 35.9074 22.8836 36.0688C22.8618 36.1385 22.8531 36.2038 22.84 36.2648C22.8276 36.4182 22.7814 36.567 22.7048 36.7005C22.7141 36.8323 22.6864 36.9642 22.6248 37.0811C22.5632 37.1981 22.47 37.2956 22.3559 37.3626V37.38L22.0768 37.5281C21.9938 37.5665 21.9149 37.6132 21.8413 37.6675C21.7935 37.7775 21.7236 37.8764 21.6358 37.9581C21.548 38.0398 21.4443 38.1025 21.3311 38.1424C21.2328 38.2535 21.1465 38.3747 21.0738 38.5039L21.052 38.5388L20.6158 39.2053L19.857 39.41C19.4627 39.5091 19.0595 39.569 18.6533 39.5886C18.3066 39.608 17.9622 39.6576 17.6241 39.7367C17.3282 39.797 17.0276 39.832 16.7257 39.8413C16.4422 39.8631 16.15 39.8849 15.9058 39.9197C14.7937 40.0199 14.5669 40.0417 14.2486 39.7324C14.103 39.6048 14.0073 39.4297 13.9786 39.2383C13.9498 39.047 13.9899 38.8516 14.0916 38.6869C14.1739 38.4392 14.306 38.2109 14.4797 38.016C14.5059 37.9768 14.676 37.685 14.8766 37.2755V37.2406L15.0641 36.9008C15.1791 36.6638 15.3179 36.439 15.4784 36.23C15.5863 36.0866 15.7043 35.9512 15.8317 35.8248C15.9244 35.7355 16.0104 35.6394 16.089 35.5373C16.2416 35.3021 16.6036 34.775 16.8914 34.4047C17.0092 34.2522 17.14 34.0954 17.2534 33.9691L17.4366 33.7469C17.4859 33.5035 17.5774 33.2706 17.707 33.0586C17.8609 32.8475 17.9295 32.5862 17.8989 32.3268C17.8989 32.17 17.8989 31.9652 17.8989 31.865C17.7838 31.6803 17.7318 31.4632 17.7506 31.2464C17.6449 30.4754 17.3661 29.7383 16.935 29.0901L16.9002 29.0378C16.8221 28.8998 16.7593 28.7537 16.7126 28.6022C16.5583 28.4378 16.3857 28.2916 16.198 28.1666C16.0292 28.1189 15.8778 28.0236 15.7619 27.8921C15.7008 27.8355 15.4741 27.6874 14.6934 27.6264H14.6454C14.5011 27.6022 14.3555 27.5862 14.2093 27.5785C13.9933 27.5726 13.7797 27.5314 13.577 27.4565H13.5377C13.4171 27.4903 13.2893 27.4882 13.1699 27.4502C13.0506 27.4123 12.9449 27.3403 12.8661 27.243C12.6921 27.2254 12.5284 27.1521 12.3995 27.0339C12.2478 27.0223 12.1047 26.9593 11.9939 26.8553H11.911C11.7963 26.8468 11.6845 26.8149 11.5825 26.7617C11.4806 26.7086 11.3905 26.6352 11.3179 26.546L11.2263 26.4589C11.0348 26.4026 10.8537 26.3158 10.6899 26.2019L10.4936 26.1017L10.4108 26.0582C10.2556 26.0638 10.1018 26.0261 9.96697 25.9491C9.83211 25.8721 9.72148 25.759 9.64758 25.6225L9.6127 25.5703H9.59088C9.08063 25.5703 8.90619 25.3568 8.8495 25.1608L8.76227 25.078L8.69685 24.9996C8.49814 24.7518 8.3863 24.4457 8.37849 24.1283C8.3796 23.8466 8.43283 23.5674 8.53549 23.305C8.53549 23.2484 8.53549 23.2135 8.55729 23.1917C8.48074 23.0593 8.44044 22.909 8.44044 22.7561C8.44044 22.6032 8.48074 22.4529 8.55729 22.3205C8.55729 22.2943 8.55729 22.2595 8.55729 22.229C8.56647 21.9507 8.63018 21.6769 8.74482 21.4231C9.1286 20.7217 9.49494 20.517 11.2132 19.7634H11.2481C11.3595 19.721 11.4638 19.6623 11.5578 19.5891C11.8141 19.3984 12.1138 19.2741 12.43 19.2276C12.5577 19.1905 12.683 19.1453 12.805 19.0925C12.8863 19.0578 12.9693 19.0273 13.0536 19.001C13.4769 18.8696 13.9188 18.8078 14.362 18.8181C14.4097 18.8247 14.4582 18.8247 14.5059 18.8181C14.6043 18.7218 14.7339 18.6637 14.8713 18.6541C15.0088 18.6445 15.1451 18.6841 15.256 18.7658L15.6921 18.6787L16.1282 18.5959C16.6731 18.5128 17.2275 18.5128 17.7724 18.5959H17.8509L17.9163 18.6307C17.9868 18.6422 18.059 18.6347 18.1256 18.609C18.2472 18.5445 18.3827 18.5108 18.5203 18.5108C18.6579 18.5108 18.7935 18.5445 18.915 18.609L19.0284 18.6787C19.3062 18.4146 19.5561 18.1226 19.7741 17.8074C19.7933 17.7284 19.8283 17.654 19.877 17.5889C19.9257 17.5238 19.9872 17.4692 20.0576 17.4284L20.1143 17.3674L20.1754 17.3457C20.2233 17.3116 20.2586 17.2625 20.2757 17.2063C20.359 16.9432 20.4955 16.7 20.6769 16.4918C20.6919 16.2148 20.7433 15.9409 20.8295 15.6772C20.9093 15.1049 20.8246 14.5218 20.5853 13.9957C20.4344 13.6447 20.3444 13.2705 20.3193 12.8892C20.2932 12.7262 20.2401 12.5687 20.1623 12.4231C19.9869 12.1545 19.8833 11.8456 19.8614 11.5257C19.8488 11.4051 19.8164 11.2873 19.7654 11.1772L19.7393 11.1119C19.7249 11.07 19.7074 11.0292 19.6869 10.9899C19.6127 10.8403 19.5883 10.6708 19.6172 10.5064C19.5692 10.4018 19.4689 10.2275 19.3249 9.9836C19.0733 9.59087 18.9234 9.14175 18.8888 8.67673C18.8919 8.64777 18.8919 8.61857 18.8888 8.58961L18.8321 8.53298C18.6661 8.37041 18.5588 8.15747 18.5269 7.92747C18.5016 7.84367 18.4695 7.76207 18.4309 7.6835C18.3144 7.4914 18.2235 7.28492 18.1605 7.06928C18.135 7.02866 18.1073 6.98939 18.0777 6.95166C18.013 6.89165 17.9628 6.81769 17.9311 6.7354C17.8994 6.65311 17.8868 6.56468 17.8945 6.47683C17.8422 6.40713 17.7767 6.32872 17.7157 6.23724C17.6536 6.15069 17.5867 6.06778 17.5151 5.98893C17.4109 5.87375 17.3189 5.7482 17.2403 5.61429C17.2098 5.55766 17.1793 5.49232 17.1487 5.42697C17.1303 5.37899 17.1085 5.3324 17.0833 5.28757C17.0119 5.20501 16.9504 5.11436 16.9002 5.01748C16.8112 5.00499 16.726 4.97316 16.6507 4.92424C16.5753 4.87532 16.5116 4.81049 16.464 4.73433C16.3598 4.72175 16.262 4.67734 16.1839 4.60717C16.1059 4.53701 16.0514 4.4445 16.0279 4.34227H15.9669C15.8283 4.37267 15.6835 4.35357 15.5576 4.2883C15.4317 4.22303 15.3327 4.11572 15.2778 3.98506C15.1301 3.91838 14.9968 3.8237 14.8853 3.70626C14.8506 3.69188 14.8138 3.68306 14.7763 3.68013C14.6273 3.67342 14.4803 3.64403 14.3402 3.593L14.2573 3.5625C14.1655 3.71491 14.0312 3.83729 13.8709 3.91466C13.7106 3.99203 13.5311 4.02104 13.3545 3.99812C13.1365 3.99812 13.1278 3.99813 12.744 4.23337C12.4388 4.46392 12.0803 4.61376 11.7017 4.66899H11.6799C11.6191 4.77727 11.5366 4.87185 11.4376 4.94681C11.3385 5.02177 11.225 5.07549 11.1042 5.10461C11.0916 5.11729 11.0813 5.13203 11.0737 5.14818C10.8905 5.51846 10.7466 5.69707 10.2799 5.70578C10.233 5.70975 10.1863 5.71703 10.1404 5.72755C10.0314 5.75337 9.92059 5.77085 9.80894 5.77983C9.73962 5.90367 9.64529 6.01178 9.53192 6.09727C9.41856 6.18276 9.28864 6.24377 9.15042 6.27644L9.07191 6.30258H8.98904C8.98904 6.30258 8.86257 6.42891 8.77535 6.52039L8.69685 6.58573L8.4788 6.74257C8.3269 6.86016 8.16655 6.96644 7.99907 7.06056C7.92062 7.1199 7.8528 7.19208 7.79846 7.27403L7.76356 7.33501L7.70687 7.40471C7.49008 7.63182 7.25844 7.84429 7.01345 8.04072C6.72561 8.26289 6.40725 8.52862 6.35056 8.58525C6.21689 8.74924 6.04023 8.87291 5.8403 8.94246C5.73019 9.07749 5.59367 9.18866 5.43908 9.26918C5.33195 9.32908 5.22985 9.39755 5.1338 9.47393C4.99059 9.64233 4.80104 9.76502 4.58865 9.82678C4.10995 10.208 3.67156 10.6372 3.28031 11.1075C3.24395 11.2169 3.18179 11.316 3.09906 11.3963C3.01632 11.4767 2.91545 11.536 2.80495 11.5693C2.83724 11.6615 2.84736 11.76 2.83448 11.8569C2.8216 11.9538 2.78609 12.0463 2.73082 12.1269L2.56944 12.3229C2.37695 12.6801 2.22343 13.0569 2.11153 13.4468C2.08774 13.6692 2.02577 13.8858 1.92836 14.0872L1.89784 14.1395C1.78864 14.3148 1.74536 14.5233 1.77573 14.7276C1.77954 15.0441 1.7309 15.3591 1.6318 15.6598C1.68248 15.7862 1.69118 15.9256 1.65664 16.0573C1.62209 16.1891 1.54612 16.3063 1.43991 16.3916C1.38377 16.6283 1.36464 16.8723 1.38321 17.1148C1.39239 17.3 1.3317 17.4818 1.21314 17.6245C1.24541 17.8342 1.23051 18.0485 1.16952 18.2518C1.11283 18.5001 0.929661 19.9943 0.803188 21.3011C0.782229 21.4789 0.773487 21.658 0.777023 21.837C0.786794 21.9848 0.766005 22.1331 0.71596 22.2726C0.67671 22.4817 0.628746 23.4052 0.628746 23.7232C0.720304 24.6536 0.679191 25.5923 0.506634 26.5112C0.419411 26.7856 0.807551 28.7634 1.09103 29.3689V29.6521L1.44864 30.1661C1.70518 30.606 2.12008 30.9317 2.60871 31.0765C2.88698 31.1195 3.1415 31.2581 3.32829 31.4686L3.40242 31.4947C3.61787 31.5222 3.8272 31.5855 4.02171 31.6821C4.14521 31.7478 4.2753 31.8004 4.40985 31.8389C4.70381 31.8647 4.99539 31.9127 5.28207 31.9826C6.07674 32.2271 6.8984 32.3734 7.72868 32.4183C8.40435 32.4605 9.08225 32.4517 9.75661 32.3921C10.8818 32.0915 11.1304 32.3311 11.235 32.4313C11.2954 32.492 11.3415 32.5652 11.3702 32.6458C11.3988 32.7264 11.4093 32.8124 11.4008 32.8975C11.321 33.3072 11.1152 33.6818 10.812 33.9691C10.7474 34.0608 10.6891 34.1569 10.6376 34.2566C10.4407 34.6533 10.2193 35.0374 9.97466 35.4066C9.92233 35.4981 9.83947 35.6419 9.74352 35.7943C9.54727 36.1211 9.30742 36.5262 9.1635 36.8094C8.95294 37.2296 8.68428 37.6182 8.3654 37.9638C8.28937 38.043 8.22076 38.129 8.16043 38.2208L7.78101 38.6129C7.65924 38.6645 7.5623 38.7613 7.51062 38.8829C7.45652 39.0529 7.35518 39.2039 7.21842 39.3186C7.14381 39.3897 7.07525 39.4669 7.01345 39.5494C6.95239 39.6453 6.89134 39.728 6.839 39.7977L6.81284 39.8326V40.0635C6.59774 40.5667 6.4808 41.1064 6.4683 41.6535C6.42369 42.0628 6.41057 42.475 6.42906 42.8863C6.45086 44.1932 6.45522 44.2411 6.56425 44.5025C6.70141 44.8747 6.95733 45.1916 7.29257 45.4042H7.35362C7.72264 45.5958 8.06806 45.8297 8.38285 46.1012C8.56602 46.1448 9.82639 46.9725 9.86564 47.003C10.1627 47.1014 10.4413 47.2487 10.6899 47.4386C10.8181 47.5184 10.9506 47.5911 11.0867 47.6564L11.5534 46.9289L12.116 47.7392C12.2781 47.926 12.3705 48.163 12.3777 48.41C12.3777 48.4536 12.3777 48.5364 12.3777 48.5886V48.6148C12.4498 48.7353 12.4897 48.8724 12.4935 49.0127C12.4973 49.1531 12.4649 49.2921 12.3995 49.4163C12.3995 49.4163 12.3995 49.4555 12.4213 49.4773V49.5383C12.5296 49.8957 12.5016 50.2806 12.3428 50.6187C12.2369 50.8977 12.0802 51.1547 11.8805 51.3766C11.6624 51.6032 11.4444 51.6075 10.8033 51.6162C10.618 51.6161 10.4329 51.603 10.2494 51.577H10.075C9.92842 51.5687 9.78267 51.5498 9.63886 51.5204L9.37282 51.4768C9.46005 51.5509 9.54727 51.6337 9.64321 51.7251C10.3541 52.335 10.7902 52.9928 10.8294 53.5199L10.8774 53.5853L10.969 53.7203C11.1042 53.8946 11.1783 54.1777 11.3572 55.0664C11.4765 55.4627 11.5179 55.8784 11.4793 56.2905C11.4793 56.2905 11.4793 56.3253 11.4793 56.3384C11.5736 56.6067 11.6151 56.8907 11.6014 57.1748C11.6014 57.2184 11.6014 57.2968 11.6014 57.3491C11.7362 57.5925 11.8319 57.8557 11.8848 58.1288C11.9154 58.2551 11.9372 58.3641 11.9546 58.4599C11.9721 58.5557 11.9546 58.5165 11.9546 58.5383L12.0113 59.2048C12.0864 59.5081 12.1992 59.8008 12.3471 60.076C13.3589 61.6051 13.6904 62.032 14.2224 62.3152C14.5838 62.5529 14.9962 62.7021 15.4261 62.7508C15.6697 62.761 15.9048 62.8429 16.1021 62.986C16.4818 63.0373 16.8684 62.9877 17.2229 62.8423C17.53 62.7178 17.787 62.4949 17.9535 62.2087C18.1201 61.9225 18.1867 61.5891 18.1431 61.261V60.2285C18.0536 59.7266 18.0715 59.2115 18.1954 58.7169C18.2434 58.351 18.3219 57.9546 18.3873 57.6322C18.4178 57.4928 18.444 57.3665 18.4614 57.2576C18.5007 57.0485 18.5399 56.761 18.5748 56.4778C18.601 56.2774 18.6272 56.077 18.6533 55.8984L18.8365 54.1864C18.871 53.3072 18.9819 52.4327 19.168 51.5727C19.2429 51.1896 19.2779 50.7998 19.2726 50.4095C19.2821 50.0526 19.2603 49.6954 19.2072 49.3423C19.1403 49.1521 19.1268 48.9472 19.168 48.7498C19.1707 48.494 19.1473 48.2386 19.0982 47.9875C19.0154 47.6229 18.9571 47.2533 18.9237 46.881C18.9287 46.7349 18.917 46.5888 18.8888 46.4454C18.8162 46.2923 18.7564 46.1335 18.71 45.9705C18.6882 45.8965 18.6664 45.8224 18.6402 45.7571V45.7222C18.5497 45.4483 18.401 45.1971 18.2041 44.986C18.1125 44.8728 18.0341 44.7769 17.9686 44.7029C17.7877 44.549 17.671 44.3329 17.6416 44.0973C17.6416 43.5267 18.5705 43.5093 19.2901 43.0562C19.7492 42.6694 20.2511 42.3361 20.7859 42.063C21.3025 41.8181 21.8599 41.6704 22.4301 41.6274C22.6175 41.6123 22.8043 41.6627 22.9587 41.7699C23.113 41.8772 23.2252 42.0347 23.2761 42.2154C23.3567 42.3886 23.397 42.5778 23.3939 42.7687V42.8776C23.4713 43.1255 23.5956 43.3562 23.7602 43.5572C23.9991 43.728 24.2548 43.874 24.5234 43.9928C24.5562 44.019 24.5912 44.0424 24.6281 44.0625C24.8036 44.0618 24.9758 44.1101 25.1253 44.2019C25.3948 44.2456 25.6678 44.2645 25.9408 44.2585H26.5993L26.8043 44.0451C26.9133 43.9318 27.0224 43.8011 27.1183 43.6835C27.2142 43.5659 27.2579 43.5136 27.3146 43.4439C27.4441 43.2069 27.6071 42.9898 27.7986 42.7992C27.8727 42.6923 27.9219 42.5703 27.9426 42.442V42.4115L27.9993 42.2939Z" fill="black"/>
<path d="M12.9998 26.1172C12.9998 26.1172 12.9998 26.152 12.9998 26.1912C12.9974 26.1666 12.9974 26.1418 12.9998 26.1172Z" fill="black"/>
<path d="M129.5 33.298C129.5 33.2544 129.5 33.1804 129.474 33.0845C129.437 32.8609 129.413 32.6355 129.4 32.4093C129.396 32.252 129.374 32.0956 129.335 31.9432L129.304 31.8909C129.21 31.7321 129.158 31.5524 129.151 31.3682C129.028 31.2541 128.949 31.0996 128.929 30.9325L128.907 30.8715C128.675 30.6786 128.427 30.5052 128.166 30.3531C127.997 30.2873 127.847 30.1811 127.73 30.0439C127.694 30.004 127.656 29.9661 127.616 29.9306C127.567 29.8912 127.515 29.8563 127.459 29.826C127.269 29.7947 127.089 29.7169 126.936 29.5995C126.86 29.5964 126.784 29.5802 126.713 29.5516C126.489 29.5439 126.267 29.5028 126.055 29.4296C125.9 29.3976 125.752 29.3371 125.619 29.251C125.401 29.185 125.198 29.077 125.021 28.933L124.402 28.9592L124.249 28.8285C124.077 28.7503 123.899 28.6834 123.717 28.6281C123.43 28.5527 123.158 28.4305 122.911 28.2665C122.767 28.2355 122.621 28.2152 122.474 28.2055C122.252 28.2044 122.037 28.1206 121.873 27.9703C121.379 27.9242 120.9 27.7837 120.46 27.5564L120.324 27.4824L120.25 27.3561V27.3256L120.128 27.2776C120.056 27.246 119.981 27.2184 119.906 27.1949L119.827 27.1687C119.675 27.1034 119.675 27.1034 119.256 27.1208C118.942 27.1595 118.623 27.1433 118.314 27.0729L118.091 27.0206C117.961 26.9901 117.773 26.9422 117.603 26.9161C117.344 26.88 117.09 26.8172 116.844 26.7287C116.742 26.7353 116.64 26.7217 116.544 26.6888C116.447 26.656 116.358 26.6044 116.282 26.5371C116.087 26.4919 115.887 26.4772 115.689 26.4935C115.457 26.5113 115.225 26.4786 115.008 26.3977H114.965L114.908 26.3672C114.67 26.476 114.438 26.5981 114.214 26.7331C114.088 26.8472 113.936 26.9297 113.772 26.9736C113.607 27.0176 113.435 27.0217 113.268 26.9858C113.187 27.0093 113.104 27.021 113.02 27.0206C112.47 27.3125 111.41 27.2733 111.101 27.2559C110.676 27.2547 110.252 27.2256 109.832 27.1687C109.501 27.1181 109.167 27.0919 108.833 27.0903H108.794L107.756 27.0685C107.424 27.0685 107.119 27.0685 106.635 27.0424H106.596C106.421 27.0424 106.251 27.0163 106.111 27.0119C105.882 27.0162 105.654 26.9823 105.435 26.9117C105.27 26.9033 105.104 26.9033 104.938 26.9117C104.642 26.9117 104.358 26.9117 104.153 26.9117C104.089 26.9059 104.025 26.9059 103.961 26.9117H103.831H103.787C103.686 26.9596 103.576 26.9866 103.465 26.9911C103.353 26.9956 103.242 26.9775 103.137 26.9379C103.046 26.9379 102.95 26.964 102.854 26.9684C102.5 26.9598 102.148 26.9292 101.798 26.8769H101.763C101.525 26.8488 101.284 26.8401 101.044 26.8507C100.77 26.8715 100.495 26.851 100.228 26.7897C99.6654 26.7194 99.0966 26.7106 98.5318 26.7636C98.3958 26.8353 98.2481 26.8825 98.0957 26.903L97.8733 26.9509C97.7762 26.9836 97.6772 27.0098 97.5767 27.0293H97.5331C97.2313 27.1875 96.897 27.274 96.5562 27.282C96.421 27.282 96.2771 27.3168 96.1201 27.343H96.0372C95.9145 27.3521 95.7939 27.38 95.6796 27.4258C95.47 27.5349 95.2425 27.6057 95.008 27.6349H94.9251L94.8074 27.6958H94.7027L94.489 27.7394C94.2361 27.7917 93.8567 27.8744 93.4947 27.9311L92.81 28.04C92.6658 28.0692 92.5203 28.091 92.3739 28.1053L92.0642 28.1271C91.6674 28.1576 91.0481 28.2055 90.6774 28.2273L90.6207 28.2709C90.4999 28.3677 90.358 28.4347 90.2065 28.4664C90.0549 28.4982 89.898 28.4939 89.7485 28.4538C89.5649 28.647 89.3197 28.7702 89.055 28.8023H88.9983C88.8668 28.8366 88.7326 28.8599 88.5971 28.872C88.554 28.8753 88.5115 28.884 88.4706 28.8982H88.3616C88.2613 29.0063 88.1378 29.0902 88.0003 29.1438C87.8628 29.1974 87.715 29.2191 87.5679 29.2075C87.2931 29.2075 87.2713 29.2075 86.9442 29.4471L86.8657 29.5037L86.7698 29.5342L86.4951 29.6169C86.2937 29.7008 86.0763 29.7394 85.8583 29.7302C85.7062 29.8027 85.5422 29.847 85.3742 29.8609C85.2005 29.8997 85.0203 29.8997 84.8465 29.8609C84.4823 30.138 84.0581 30.326 83.608 30.4098V30.5056L82.256 30.5579C81.7442 30.6142 81.238 30.7133 80.7427 30.8541C80.2344 30.9969 79.7172 31.1061 79.1945 31.1808C78.6149 31.2431 78.0416 31.3538 77.4806 31.5119C77.3627 31.5778 77.232 31.6178 77.0973 31.6291C76.9627 31.6403 76.8272 31.6227 76.6999 31.5773C76.5119 31.6461 76.3196 31.7028 76.1243 31.7472L75.9367 31.7951C75.7885 31.844 75.6429 31.9007 75.5006 31.965L75.3785 32.026L74.672 32.0565C74.3691 32.181 74.0481 32.256 73.7213 32.2786C73.6047 32.3167 73.4922 32.3664 73.3855 32.4267L73.2154 32.5095C73.0251 32.6007 72.8158 32.6455 72.6048 32.6402C72.4565 32.6707 72.4304 32.6881 72.3301 32.858C72.2648 32.9985 72.1716 33.1242 72.0562 33.2276C71.9407 33.3309 71.8054 33.4097 71.6585 33.4592L71.5843 33.5158L71.3488 33.6987L71.2921 33.751C71.3347 33.8541 71.3526 33.9657 71.3442 34.0769C71.3359 34.1881 71.3016 34.2958 71.2441 34.3914C71.4202 34.4564 71.5723 34.5734 71.6803 34.7268C71.7806 34.7695 71.8757 34.8236 71.9637 34.888C72.0784 34.9442 72.1981 34.9894 72.3214 35.0231L72.3999 35.0492L72.4871 35.0797C72.7127 35.1344 72.9202 35.247 73.0889 35.4064C73.3633 35.378 73.6384 35.4526 73.8608 35.6155L74.0047 35.6416H74.0309H74.1705C74.3917 35.6401 74.6053 35.7226 74.7679 35.8725C75.0762 35.9796 75.3949 36.054 75.7187 36.0947C75.8356 36.0874 75.9527 36.1037 76.0632 36.1426H76.2377L76.3772 36.2559C76.46 36.26 76.543 36.26 76.6258 36.2559C76.9179 36.2311 77.2122 36.2517 77.498 36.3168L77.5765 36.343C77.6505 36.3734 77.7282 36.3939 77.8077 36.404C78.0402 36.3742 78.2755 36.4333 78.4662 36.5695C78.6855 36.5491 78.9057 36.5994 79.0942 36.7133C79.2752 36.6616 79.4688 36.6771 79.6393 36.7568C79.8548 36.7089 80.0781 36.7089 80.2935 36.7568H80.5944C80.9117 36.7354 81.2303 36.7471 81.5451 36.7917C81.6891 36.8135 81.8025 36.8352 81.9028 36.857C81.9755 36.8755 82.0501 36.8858 82.1252 36.8875C82.3804 36.8611 82.6382 36.8924 82.8797 36.979C82.9303 36.9856 82.9816 36.9856 83.0323 36.979C83.2031 36.9192 83.3892 36.9192 83.56 36.979L83.7519 36.9441C84.0853 36.8485 84.439 36.8485 84.7724 36.9441C84.83 36.9552 84.8883 36.9624 84.9468 36.9659C85.4012 36.8481 85.8686 36.7881 86.338 36.7873L86.7742 36.7394C87.0227 36.7133 87.2103 36.6915 87.3193 36.6741C87.6464 36.5163 88.0074 36.4415 88.3703 36.4563H88.3965C88.6275 36.2463 88.926 36.1257 89.2382 36.1165C89.531 36.111 89.8229 36.0804 90.1104 36.025C90.2613 35.9274 90.4366 35.8746 90.6163 35.8725C90.6846 35.8688 90.753 35.8688 90.8213 35.8725C90.967 35.8835 91.1135 35.8762 91.2574 35.8507C91.7069 35.773 92.1619 35.7307 92.6181 35.7244L93.0804 35.7026L93.1371 35.6416H93.7258C93.9905 35.6102 94.2528 35.5607 94.5108 35.4935H94.6242L95.4964 35.4587C95.9007 35.3227 96.322 35.2435 96.7481 35.2234H96.7917C96.9995 35.1924 97.2049 35.1473 97.4066 35.0884C97.9567 34.9929 98.5142 34.9462 99.0726 34.949C99.7224 34.9228 100.948 34.8183 102.029 34.7225C102.823 34.6528 103.517 34.5918 103.861 34.5744C104.099 34.5034 104.351 34.4944 104.594 34.5482L105.344 34.5177L105.414 34.5787C105.701 34.5906 105.985 34.6314 106.264 34.7007C107.245 34.926 108.238 35.0919 109.238 35.1973C109.424 35.1793 109.611 35.2124 109.779 35.2931C110.214 35.3268 110.651 35.334 111.088 35.3149C111.881 35.3236 112.674 35.3847 113.46 35.4979H113.525C113.787 35.5197 114.751 35.4979 115.401 35.4587L118.179 35.3585C118.794 35.402 119.417 35.4325 119.566 35.4282C119.849 35.4099 120.132 35.4623 120.39 35.5806C120.744 35.6735 121.111 35.7074 121.476 35.6808C121.661 35.646 121.842 35.592 122.017 35.5196L122.139 35.4543H122.274C122.351 35.4469 122.428 35.4469 122.505 35.4543C122.636 35.4021 122.779 35.3851 122.919 35.4049C123.059 35.4248 123.191 35.4809 123.303 35.5676C123.397 35.5786 123.492 35.5786 123.587 35.5676C123.895 35.5289 124.207 35.6082 124.459 35.7897L125.536 35.7505C125.859 35.7505 126.125 35.7505 126.351 35.7505C126.681 35.7635 127.01 35.7372 127.333 35.6721C128.102 35.1929 128.76 34.5541 129.26 33.799V33.7685C129.327 33.6761 129.388 33.5801 129.444 33.4809L129.5 33.298Z" fill="black"/>
</g>
<defs>
<clipPath id="clip0_7330_25301">
<rect width="188" height="63" fill="white"/>
</clipPath>
</defs>
</svg>
