<svg width="574" height="113" viewBox="0 0 574 113" fill="none" xmlns="http://www.w3.org/2000/svg">
<g clip-path="url(#clip0)">
<path d="M19.4247 41.6646C17.9536 42.2434 16.6526 43.5009 15.4918 44.5288C14.531 45.377 13.5303 46.2652 12.6697 47.2233C9.71744 50.5565 7.49578 54.4885 5.43423 58.4105C4.38344 60.4065 3.36268 62.3824 2.55207 64.4981C1.83153 66.3643 1.07096 68.2405 0.790753 70.2364C0.530558 72.0827 0.0902283 73.879 0.0201758 75.7552C-0.0498766 77.7811 0.0902283 79.777 0.300386 81.7829C0.680671 85.5253 2.11174 89.1679 3.48277 92.6508C3.82302 93.539 4.12325 94.3873 4.53356 95.2256C4.8538 95.8443 5.2641 96.4531 5.6544 97.0319C6.25485 97.9301 6.8553 98.8582 7.54581 99.7065C8.01617 100.275 8.58659 100.954 9.32715 101.213C10.6782 101.672 12.0492 102.042 13.4402 102.411C17.5533 103.519 21.8065 104.257 26.0096 104.517C28.5916 104.666 31.2236 104.616 33.8355 104.477C36.0171 104.367 38.1888 104.207 40.3304 103.928C44.7837 103.349 48.9969 102.022 53.0199 100.036C55.1715 98.9779 57.2631 97.7704 59.1745 96.3134C60.9959 94.9262 62.457 93.2795 63.818 91.4433C65.8795 88.6689 67.5708 85.6151 68.8818 82.4216C69.3221 81.3638 69.7724 80.3359 70.1127 79.2281C70.3729 78.3898 70.503 77.4118 70.2128 76.7731C69.6223 75.4458 68.6316 74.2583 67.7509 73.1106C65.6693 70.3762 63.4177 67.7715 61.2861 65.0869C59.3746 62.7018 57.5533 60.3466 55.2015 58.4005C53.6904 57.1531 52.1993 55.8457 50.8683 54.4087C49.5473 52.9915 48.4364 51.3449 47.1955 49.838C43.9831 45.9359 39.9601 42.5229 34.9163 41.3453C32.3344 40.7365 29.6224 40.2575 26.9604 40.4271C25.6894 40.507 24.3284 40.6367 22.9974 40.8363C21.7364 41.0059 20.5255 41.2255 19.4247 41.6646Z" fill="#004098"/>
<path d="M37.6079 0.00960285C35.7164 -0.120133 33.4347 1.42672 31.9636 2.64424C30.7627 3.63223 29.7019 4.75993 28.6611 5.89762C27.3201 7.36463 25.9891 8.80171 24.8583 10.3486C23.6674 11.9952 22.7167 13.8015 21.836 15.7376C21.0855 17.4042 20.2048 19.0409 19.7445 20.8272C19.2741 22.6435 18.9939 24.4499 19.054 26.326C19.124 28.2721 19.3842 30.288 19.8145 32.1841C20.3149 34.3198 21.0655 35.4575 23.2871 35.9964C25.5188 36.5353 27.5803 35.7269 29.6819 35.0583C30.7727 34.719 31.8535 34.3497 32.9343 34.1501C33.7149 34.0004 34.4855 33.9705 35.3061 33.8707C37.7279 33.5513 39.9696 32.7929 42.1513 31.7251C44.0727 30.787 46.0942 29.6992 47.4352 27.9926C48.3559 26.825 49.0064 25.5676 49.4367 24.2802C49.9571 22.6435 50.0272 20.937 49.9171 19.2205C49.787 17.2146 49.3767 15.1887 48.6461 13.2327C47.6053 10.5082 46.1142 7.93348 44.533 5.7579C43.6424 4.54038 42.6416 3.50249 41.5508 2.47459C40.49 1.44668 38.8888 0.00960285 37.6079 0.00960285Z" fill="#E60012"/>
<path d="M78.1289 80.4156C82.1819 75.9048 91.0185 65.965 92.7498 64.1088C92.2895 63.4701 92.0493 63.1707 91.2086 62.043C90.1579 64.7076 82.0918 73.5097 77.028 79.1981C71.1836 72.7113 46.9155 45.3071 37.3283 34.4492C42.302 29.14 46.9355 24.0404 46.9355 18.4518C46.9355 11.8452 41.4714 6.49609 34.7363 6.49609C28.0013 6.49609 22.5372 11.8452 22.5372 18.4518C22.5372 24.8088 28.4516 30.128 33.6155 36.0459C28.4116 41.7942 22.0669 48.8998 13.4604 58.61C0.180453 73.6295 1.14117 91.7825 12.98 103.628C24.949 115.604 44.0633 116.462 56.4326 104.127C59.9853 100.834 70.8734 88.5191 75.607 83.2199C77.4884 85.2757 84.0133 92.3713 87.2857 96.5129C88.6167 98.1994 89.007 98.7084 89.6575 99.8561C91.3387 99.8561 94.1308 99.8561 96.0923 99.8561C94.1408 98.2294 82.5422 85.2757 78.1289 80.4156ZM34.7363 8.15272C41.1011 8.15272 43.6931 13.6914 43.6931 18.4418C43.6931 22.8129 41.3313 27.7628 36.2575 33.2117C31.0035 27.1041 26.4201 22.9726 26.4201 17.5436C26.4301 12.7933 29.9728 8.15272 34.7363 8.15272ZM17.2232 98.918C4.6438 86.4633 6.9155 68.929 16.6928 57.7019C25.6796 47.3928 31.1537 41.2653 34.7163 37.2834C42.5222 45.9258 67.9712 74.5675 74.5262 82.0124C70.0228 87.102 65.1491 92.4112 59.7851 97.8502C47.7761 110.914 29.2522 110.834 17.2232 98.918Z" fill="#231815"/>
<path d="M325.053 61.4641C332.039 53.8595 333.77 45.8259 333.82 31.016C335.281 30.9861 336.912 30.9761 338.854 30.9761C340.885 30.9761 359.98 30.9761 362.011 30.9761C366.925 30.9761 369.897 31.056 373.019 31.2356V27.8225C369.897 28.0022 366.925 28.082 362.011 28.082C361.781 28.082 361.321 28.082 360.7 28.082C361.24 27.124 363.032 23.6011 363.632 22.1341C367.245 22.1541 369.767 22.2339 372.369 22.3936V18.9805C369.246 19.1602 366.274 19.24 361.361 19.24C360.55 19.24 357.298 19.24 353.555 19.24C353.595 17.5235 353.665 16.0166 353.755 14.4797H347.32C347.41 16.0166 347.48 17.5235 347.52 19.24C343.867 19.24 340.725 19.24 339.925 19.24C335.011 19.24 332.039 19.1602 328.916 18.9805V22.3936C331.488 22.2439 333.99 22.1641 337.543 22.1341C338.844 24.0402 339.844 26.1559 340.705 28.082C339.804 28.082 339.144 28.082 338.854 28.082C333.94 28.082 331.178 28.0022 328.056 27.8225C328.356 36.5947 328.426 52.0333 322.622 59.4082L325.053 61.4641ZM357.898 22.1441C357.688 23.5712 356.747 26.8246 356.087 28.102C352.734 28.102 348.581 28.102 345.178 28.102C344.818 26.2358 344.238 23.9504 343.567 22.1441C347.6 22.1441 353.925 22.1441 357.898 22.1441ZM216.072 47.7021C215.521 46.5544 215.051 45.6962 214.411 44.6084C225.599 39.409 230.743 30.7167 232.644 20.0384C228.951 20.0384 225.929 20.0384 225.209 20.0384C220.295 20.0384 217.323 20.1182 214.2 20.2979V16.1164C217.323 16.296 220.295 16.3758 225.209 16.3758C227.24 16.3758 247.545 16.3758 249.577 16.3758C254.491 16.3758 257.463 16.296 260.585 16.1164V20.2979C257.463 20.1182 254.491 20.0384 249.577 20.0384C248.696 20.0384 244.433 20.0384 239.699 20.0384C239.669 21.6052 239.649 23.3516 239.649 25.4773C239.649 27.5032 239.649 47.9316 239.649 49.9575C239.649 54.8575 239.729 57.8215 239.91 60.9351H233.755C233.935 57.8215 234.015 54.8575 234.015 49.9575C234.015 48.6402 234.015 39.5786 234.015 32.8224C230.483 38.7004 224.838 43.5904 216.072 47.7021ZM240.55 29.5291C241.861 28.7008 242.712 28.092 243.813 26.9743C247.165 33.3313 252.489 38.8002 259.734 42.4428C257.983 44.309 257.193 45.6363 255.922 47.7021C248.166 41.9538 243.322 36.5448 240.55 29.5291ZM123.382 21.6451C118.469 21.6451 115.496 21.725 112.374 21.9046V17.1243C115.496 17.304 118.469 17.3838 123.382 17.3838C125.414 17.3838 138.143 17.3838 140.175 17.3838C145.089 17.3838 148.061 17.304 151.183 17.1243V21.9046C148.061 21.725 145.089 21.6451 140.175 21.6451C138.143 21.6451 125.424 21.6451 123.382 21.6451ZM120.47 58.7296C115.556 58.7296 112.584 58.8095 109.462 58.9891V54.2088C112.584 54.3885 115.556 54.4683 120.47 54.4683C122.502 54.4683 141.056 54.4683 143.087 54.4683C148.001 54.4683 150.973 54.3885 154.095 54.2088V58.9891C150.973 58.8095 148.001 58.7296 143.087 58.7296C141.056 58.7296 122.512 58.7296 120.47 58.7296ZM137.193 35.1576C142.106 35.1576 145.079 35.0778 148.201 34.8981V39.6784C145.079 39.4988 142.106 39.4189 137.193 39.4189C135.161 39.4189 128.416 39.4189 126.385 39.4189C121.471 39.4189 118.499 39.4988 115.376 39.6784V34.8981C118.499 35.0778 121.471 35.1576 126.385 35.1576C128.416 35.1576 135.151 35.1576 137.193 35.1576ZM160.59 58.4302L162.562 61.474C165.884 59.5879 170.057 57.3824 172.739 54.1789C174.631 51.9135 175.892 49.0593 176.582 46.3349C181.246 46.3349 187.761 46.3349 192.274 46.3349C192.274 48.1711 192.274 49.5084 192.274 49.9575C192.274 54.8575 192.194 57.8215 192.014 60.9351H198.449C198.268 57.8215 198.188 54.8575 198.188 49.9575C198.188 49.5084 198.188 48.1711 198.188 46.3349C202.602 46.3448 205.434 46.4247 208.366 46.5943V42.4128C205.434 42.5825 202.602 42.6623 198.188 42.6723C198.188 37.1935 198.188 30.1777 198.188 27.0042C201.641 27.0341 204.093 27.114 206.615 27.2637V23.0822C204.083 23.2319 201.631 23.3117 198.188 23.3317C198.208 19.6592 198.288 17.1243 198.449 14.4997H192.014C192.174 17.1243 192.254 19.6691 192.274 23.3417C188.381 23.3417 182.086 23.3417 177.733 23.3417C177.753 19.6691 177.833 17.1243 177.993 14.4997H171.558C171.719 17.1243 171.799 19.6691 171.819 23.3417C167.656 23.3317 164.913 23.2518 162.081 23.0822V27.2637C164.913 27.094 167.645 27.0142 171.809 27.0042C171.749 30.6368 171.538 38.9299 171.298 42.6823C171.178 42.6823 171.078 42.6823 171.008 42.6823C166.094 42.6823 163.122 42.6025 160 42.4228V46.6043C163.082 46.4247 166.024 46.3448 170.818 46.3448C169.547 52.6819 166.325 56.2547 160.59 58.4302ZM177.713 26.9942C182.066 26.9942 188.371 26.9942 192.274 26.9942C192.274 30.1578 192.274 37.1935 192.274 42.6723C187.951 42.6723 181.806 42.6723 177.203 42.6723C177.533 38.9798 177.693 32.5629 177.713 26.9942ZM359.829 56.1748C361.511 56.1748 370.237 56.095 373.36 55.9154V59.538C370.237 59.3583 361.521 59.2785 359.829 59.2785C359.129 59.2785 347.14 59.2785 346.449 59.2785C344.768 59.2785 336.042 59.3583 332.919 59.538V55.9154C336.042 56.095 344.758 56.1748 346.449 56.1748C346.69 56.1748 348.221 56.1748 350.172 56.1748C350.172 54.9773 350.172 52.8516 350.172 50.5064C347.77 50.5163 341.015 50.5962 338.153 50.7658V47.1432C341.015 47.3129 347.77 47.3927 350.172 47.4027C350.172 45.267 350.172 43.2112 350.172 41.7442C348.581 41.7442 343.597 41.8041 340.165 41.9238C339.164 43.7601 337.883 45.5564 336.262 47.4326L333.82 45.8858C336.502 42.2631 337.843 37.1735 338.043 33.0319H342.857C342.657 35.0179 342.266 36.8142 341.676 38.5108C344.918 38.6006 348.801 38.6405 350.172 38.6405C350.162 35.1277 350.072 35.8562 349.912 33.022H356.377C356.207 35.8462 356.127 35.1277 356.117 38.6405C358.138 38.6405 366.364 38.5507 369.387 38.381V42.0037C366.354 41.824 358.128 41.7442 356.107 41.7442C356.107 43.2112 356.107 45.267 356.107 47.4027C358.508 47.3927 365.264 47.3129 368.126 47.1732V50.7559C365.264 50.5563 358.508 50.4964 356.107 50.4964C356.107 52.8416 356.107 54.9673 356.107 56.1649C358.058 56.1748 359.589 56.1748 359.829 56.1748ZM317.097 23.2818C315.877 23.2818 310.112 23.2818 306.69 23.2818C306.71 19.6392 306.79 17.1143 306.95 14.4997H300.515C300.665 17.1044 300.755 19.6292 300.775 23.2618C298.824 23.2319 297.283 23.172 295.671 23.0722V26.3954C297.283 26.2956 298.824 26.2358 300.775 26.2058C300.725 29.7087 300.435 41.5446 300.135 44.0994C299.524 49.219 297.893 52.7518 295.031 55.2667L294.821 53.6999C290.638 54.119 287.425 54.4483 284.383 54.7577V51.5942C284.903 51.5942 285.354 51.5942 285.684 51.5942C289.587 51.5942 291.648 51.654 294.12 51.8037V48.4805C291.648 48.6302 289.587 48.6901 285.684 48.6901C285.354 48.6901 284.903 48.6901 284.383 48.6901V45.287C284.703 45.287 285.003 45.287 285.244 45.287C289.146 45.287 291.658 45.3469 294.14 45.4966C294 43.1613 294.01 38.9499 294.01 37.423C294.01 33.7405 294 31.6847 294.14 29.3494C291.668 29.4991 289.146 29.559 285.244 29.559C284.993 29.559 284.703 29.559 284.383 29.559V26.1859C285.053 26.1859 285.624 26.1859 286.014 26.1859C289.917 26.1859 291.979 26.2458 294.45 26.3954V23.0722C291.979 23.2219 289.917 23.2818 286.014 23.2818C285.634 23.2818 285.053 23.2818 284.383 23.2818V19.3298C287.896 18.9606 291.278 18.4416 294.16 17.7031L292.659 13.3919C286.495 15.9467 276.517 17.4736 269.071 17.6732L269.212 20.0683C272.304 20.0683 275.796 19.9785 279.329 19.749V23.2818C278.699 23.2818 278.158 23.2818 277.788 23.2818C273.885 23.2818 271.523 23.2219 269.051 23.0722V26.3954C271.523 26.2458 273.885 26.1859 277.788 26.1859C278.148 26.1859 278.689 26.1859 279.329 26.1859V29.559C279.049 29.559 278.779 29.559 278.559 29.559C274.656 29.559 271.984 29.4991 269.502 29.3494C269.642 31.6847 269.632 33.7405 269.632 37.423C269.632 38.9499 269.642 43.1613 269.502 45.4966C271.974 45.3469 274.656 45.287 278.559 45.287C278.779 45.287 279.049 45.287 279.329 45.287V48.6901C278.829 48.6901 278.388 48.6901 278.058 48.6901C274.155 48.6901 271.793 48.6302 269.322 48.4805V51.8037C271.793 51.654 274.155 51.5942 278.058 51.5942C278.378 51.5942 278.819 51.5942 279.329 51.5942V55.2367C276.267 55.5261 272.944 55.8156 268.591 56.1649L269.322 60.496C279.139 58.7995 284.163 58.0111 293.56 56.4044C292.389 57.1928 291.068 57.8614 289.567 58.4203L291.538 61.4641C294.861 59.5779 299.034 57.3724 301.716 54.1689C304.018 51.4145 305.389 47.7919 305.939 44.5884C306.459 41.5446 306.68 33.0519 306.69 26.1759C308.191 26.1759 310.132 26.1759 311.924 26.1759C311.854 36.5647 311.543 48.4605 310.703 53.4903C310.062 57.3624 309.922 57.4921 306.72 56.9033C305.719 56.7237 304.728 56.5141 304.038 56.3644C303.817 57.572 303.647 58.3604 303.387 59.3284C305.349 59.8873 309.812 61.015 311.864 60.9152C313.665 60.8254 314.976 59.8274 315.536 56.8734C316.617 51.0752 317.097 31.9641 317.097 23.2818ZM284.373 32.2934C284.693 32.2934 284.993 32.2934 285.234 32.2934C286.735 32.2934 288.066 32.3034 289.257 32.3234C289.277 33.3213 289.287 34.6387 289.287 36.0358C288.086 36.0558 286.755 36.0658 285.234 36.0658C284.983 36.0658 284.693 36.0658 284.373 36.0658V32.2934ZM284.373 38.7703C284.693 38.7703 284.993 38.7703 285.234 38.7703C286.755 38.7703 288.086 38.7802 289.287 38.8002C289.287 40.3271 289.277 41.6943 289.257 42.5326C288.066 42.5526 286.735 42.5625 285.234 42.5625C284.983 42.5625 284.693 42.5625 284.373 42.5625V38.7703ZM279.319 42.5625C279.039 42.5625 278.769 42.5625 278.549 42.5625C277.027 42.5625 275.606 42.5526 274.365 42.5326C274.345 41.6943 274.345 40.3371 274.335 38.8102C275.596 38.7902 276.987 38.7802 278.549 38.7802C278.769 38.7802 279.039 38.7802 279.319 38.7802V42.5625ZM279.319 36.0658C279.039 36.0658 278.769 36.0658 278.549 36.0658C276.987 36.0658 275.596 36.0558 274.335 36.0358C274.335 34.6387 274.355 33.3213 274.365 32.3234C275.616 32.3034 277.017 32.2934 278.549 32.2934C278.769 32.2934 279.039 32.2934 279.319 32.2934V36.0658ZM509.001 35.447C513.915 35.447 516.887 35.3672 520.009 35.1875V39.9678C516.887 39.7882 513.915 39.7083 509.001 39.7083C506.97 39.7083 493.85 39.7083 491.818 39.7083C486.905 39.7083 483.932 39.7882 480.81 39.9678V35.1875C483.932 35.3672 486.905 35.447 491.818 35.447C493.85 35.447 506.97 35.447 509.001 35.447ZM421.726 19.4695C420.625 16.6453 419.664 14.6593 418.283 12.4438L421.336 11.1465C422.516 12.4438 424.348 15.1883 425.539 17.8628L421.726 19.4695ZM416.052 21.8447C414.951 19.0205 413.99 17.0345 412.609 14.819L415.661 13.5216C416.842 14.819 418.673 17.5634 419.864 20.238L416.052 21.8447ZM419.294 23.3616C415.781 45.0674 405.293 58.2306 385.158 61.3643L384.378 57.9512C394.555 55.9852 406.685 50.2968 412.449 27.613H395.236C391.903 32.8224 386.79 37.3631 379.174 41.3949L377.373 38.391C387.31 33.1617 392.104 25.2877 393.925 15.797L399.499 17.3339C399.009 19.4296 398.348 21.4355 397.508 23.3516C407.505 23.3616 417.503 23.3616 419.294 23.3616ZM468.311 32.6527L471.543 34.0299C465.949 49.2589 457.372 55.9453 445.293 59.0091V29.9981C445.293 25.0981 445.213 22.1341 445.033 19.0205H451.468C451.288 22.1341 451.208 25.0981 451.208 29.9981V50.9155C458.894 47.6023 464.908 41.9737 468.311 32.6527ZM431.133 32.1637C431.133 27.2637 431.053 22.4934 430.873 19.3797H437.307C437.127 22.4934 437.047 27.2637 437.047 32.1637C437.047 51.5343 431.863 54.2388 421.896 59.6278L419.984 56.6838C428.061 52.5722 431.133 48.9895 431.133 32.1637ZM567.865 12.9728C564.473 12.9728 561.731 15.7072 561.731 19.0903C561.731 20.0783 561.971 21.0064 562.391 21.8347H535.731C530.818 21.8347 527.845 21.7549 524.723 21.5753V26.3555C527.845 26.1759 530.818 26.0961 535.731 26.0961H558.438C554.455 41.5346 547.46 52.8915 531.638 56.1748L532.539 59.5579C551.653 55.7756 560.75 44.6483 564.963 24.4793L564.973 24.4893C565.834 24.9484 566.814 25.2079 567.855 25.2079C571.238 25.2079 573.99 22.4734 573.99 19.0903C574 15.7072 571.248 12.9728 567.865 12.9728ZM567.865 22.9525C565.724 22.9525 563.992 21.226 563.992 19.0903C563.992 16.9547 565.724 15.2282 567.865 15.2282C570.007 15.2282 571.738 16.9547 571.738 19.0903C571.738 21.226 569.997 22.9525 567.865 22.9525ZM257.843 78.4495C257.813 79.8866 257.813 83.13 257.823 85.6349C261.946 85.6349 264.658 85.4951 267.25 85.3455C267.21 86.3833 267.19 87.4811 267.25 88.6986C264.768 88.5689 261.946 88.4691 257.833 88.4691C257.873 91.9819 258.023 98.3689 258.053 99.796C255.251 99.7461 254.571 99.7461 251.949 99.796C252.039 96.363 252.099 91.7923 252.099 89.0579V85.6149C252.099 82.4214 252.039 78.0802 251.949 75.5654C251.949 75.5654 256.202 75.6153 257.263 75.6153C259.584 75.6153 263.497 75.5953 268.161 75.5654C268.091 77.0523 268.131 77.9505 268.171 78.8686C265.309 78.5892 261.996 78.4495 257.843 78.4495ZM235.086 75.5554C234.966 80.7249 234.916 82.5412 234.936 87.2616C234.936 91.8422 234.986 96.5726 235.086 99.7861C232.824 99.7461 231.293 99.7362 229.011 99.7861C229.102 96.5726 229.162 91.8422 229.162 87.2616C229.182 82.5412 229.132 80.7249 229.011 75.5554C231.283 75.6053 232.814 75.6153 235.086 75.5554ZM137.773 87.0919C138.354 93.7284 138.574 96.0836 139.004 99.7861C136.272 99.7162 135.321 99.7162 132.849 99.7861C132.629 94.1974 132.249 87.511 131.929 83.0801C130.708 85.565 129.667 87.6907 128.156 91.0838C126.665 94.427 124.713 99.3669 124.713 99.3669H121.611C119.79 94.8361 116.307 87.1618 114.606 83.4194C114.125 88.2795 113.515 94.2074 113.375 99.796C111.764 99.7062 111.013 99.7062 109.502 99.796C109.962 96.7323 110.753 90.8443 111.243 87.0919C111.654 83.9184 112.104 80.0562 112.634 75.5654H117.118C119.399 80.7348 122.482 87.7605 124.643 92.3512C126.124 89.2276 130.057 80.7548 132.379 75.5654H136.862C136.862 75.5554 137.163 80.1061 137.773 87.0919ZM150.693 75.5554C150.573 80.7249 150.523 82.5412 150.543 87.2616C150.543 91.8422 150.593 96.5726 150.693 99.7861C148.431 99.7461 146.9 99.7362 144.618 99.7861C144.708 96.5726 144.768 91.8422 144.768 87.2616C144.788 82.5412 144.738 80.7249 144.618 75.5554C146.89 75.6053 148.421 75.6153 150.693 75.5554ZM223.157 75.5354C222.917 79.7269 222.897 84.6169 222.907 89.2176C222.907 95.7543 219.815 100.285 212.719 100.285C204.853 100.285 202.071 96.5926 202.071 90.0359C202.071 87.0021 202.221 81.6929 201.981 75.5354C204.223 75.5753 205.774 75.5853 208.126 75.5354C207.926 78.8686 207.846 81.7228 207.776 85.6349C207.655 92.92 208.156 97.2213 213.63 97.2213C218.594 97.2213 219.554 93.2693 219.554 87.8603C219.554 82.7607 219.454 79.1481 219.244 75.5254C221.116 75.5953 221.486 75.6053 223.157 75.5354ZM176.032 75.5454C175.972 76.5933 176.012 77.9305 176.032 78.9285C173.35 78.7788 170.778 78.709 168.436 78.6691C168.376 85.7646 168.406 94.1775 168.626 99.806C166.505 99.7062 164.873 99.6863 162.552 99.806C162.782 94.1775 162.802 85.7646 162.742 78.6691C160.4 78.709 157.728 78.7888 155.146 78.9285C155.196 77.9305 155.166 76.703 155.146 75.5354C163.272 75.6053 168.596 75.6652 176.032 75.5454ZM196.407 92.6805C196.537 98.3091 191.804 100.225 187.1 100.225C184.658 100.225 180.525 99.4268 178.574 97.9199C179.354 95.9439 179.664 94.1376 179.785 92.8701H180.625C181.556 96.0137 184.248 97.6604 187.38 97.5905C189.302 97.5506 190.933 96.7622 191.003 94.4968C191.073 92.3312 189.462 91.1137 186.59 89.8363C184.288 88.8184 179.745 87.1717 179.494 82.611C179.294 78.8886 181.846 75.0863 187.39 75.0863C190.543 75.0863 193.195 76.254 195.296 77.6212C195.296 77.6212 195.296 77.6212 195.296 77.6312C194.776 78.8686 194.386 80.166 194.145 81.5232L193.305 81.3735C192.254 78.9884 190.322 77.4216 187.27 77.691C185.439 77.8507 184.238 78.8886 184.458 80.7847C184.708 82.8805 186.4 83.7986 189.122 84.9463C192.694 86.4332 196.307 88.3992 196.407 92.6805ZM389.792 75.5354C386.149 84.0581 381.065 95.395 379.014 99.826C380.185 99.7761 381.976 99.796 383.227 99.826C383.887 97.7801 384.728 95.4449 385.659 92.9899H394.175C394.986 95.5247 395.746 97.9598 396.307 99.826C398.348 99.806 399.769 99.7461 402.822 99.826C400.68 94.3871 395.086 78.9485 393.875 75.5354H389.792ZM386.62 90.475C387.81 87.4013 389.091 84.2477 390.292 81.2638C390.963 83.1499 392.154 86.7326 393.375 90.475H386.62ZM375.831 92.6805C375.962 98.3091 371.228 100.225 366.524 100.225C364.083 100.225 359.95 99.4268 357.998 97.9199C358.779 95.9439 359.089 94.1376 359.209 92.8701H360.05C360.98 96.0137 363.672 97.6604 366.805 97.5905C368.726 97.5506 370.357 96.7622 370.427 94.4968C370.497 92.3312 368.886 91.1137 366.014 89.8363C363.712 88.8184 359.169 87.1717 358.929 82.611C358.729 78.7788 361.721 75.0863 367.245 75.0863C370.397 75.0863 373.44 76.1542 375.581 77.6212C375.581 77.6212 375.581 77.6212 375.581 77.6312C375.061 78.8686 374.671 80.166 374.43 81.5232L373.57 81.3636C372.439 78.9884 370.177 77.4116 367.125 77.691C365.294 77.8507 363.662 78.8886 363.882 80.7847C364.133 82.8805 365.824 83.7986 368.546 84.9463C372.119 86.4332 375.731 88.3992 375.831 92.6805ZM294.611 75.5354C294.37 79.7269 294.35 84.6169 294.36 89.2176C294.36 95.7543 291.268 100.285 284.173 100.285C276.307 100.285 273.525 96.5926 273.525 90.0359C273.525 87.0021 273.675 81.6929 273.435 75.5354C275.676 75.5753 277.228 75.5853 279.579 75.5354C279.379 78.8686 279.299 81.7228 279.229 85.6349C279.109 92.92 279.609 97.2213 285.083 97.2213C290.047 97.2213 291.008 93.2693 291.008 87.8603C291.008 82.7607 290.908 79.1481 290.698 75.5254C292.569 75.5953 292.939 75.6053 294.611 75.5354ZM426.189 75.6153C427.38 75.6153 428.01 75.5554 428.01 75.5554C427.94 77.2918 427.8 79.2379 427.8 83.9782C427.8 83.9782 427.75 97.0916 427.8 99.8459H424.128C422.016 96.9918 412.049 85.076 410.437 83.3096C410.437 85.4852 410.537 89.028 410.537 89.8263C410.607 93.3891 410.507 94.9958 410.888 99.836C409.797 99.7861 408.316 99.7861 407.175 99.8459C407.425 94.9858 407.425 89.4371 407.425 87.3015C407.425 81.7129 407.405 78.4794 407.335 75.5354H411.548C411.548 75.5354 414.57 79.2079 417.743 83.0002C421.175 87.1119 424.788 91.3732 424.868 91.473C424.868 91.473 424.848 87.561 424.798 84.0481C424.718 79.0682 424.518 76.5534 424.398 75.6053C424.398 75.5853 424.998 75.6153 426.189 75.6153ZM340.865 75.0265C333.029 75.0265 327.966 79.9764 327.966 87.6508C327.966 95.3152 333.029 100.275 340.865 100.275C348.721 100.275 353.795 95.3251 353.795 87.6508C353.795 79.7469 348.961 75.0265 340.865 75.0265ZM340.865 97.6105C336.502 97.6105 334.1 94.0777 334.1 87.6607C334.1 81.1041 336.442 77.6411 340.865 77.6411C345.188 77.6411 347.66 81.2937 347.66 87.6607C347.66 94.0677 345.249 97.6105 340.865 97.6105ZM310.322 75.5753C309.512 75.5753 305.989 75.6452 304.858 75.6452C303.627 75.6452 300.475 75.5654 300.475 75.5654C300.545 78.6291 300.615 82.4015 300.615 85.6149L300.605 89.7465C300.635 94.417 300.545 97.2013 300.475 99.796L300.825 99.7861C302.126 99.7561 303.928 99.7162 304.858 99.7162C305.759 99.7162 307.55 99.7461 307.55 99.7461C308.531 99.7661 309.542 99.7861 310.322 99.7861C313.495 99.7861 316.357 98.7981 318.659 97.0017C321.481 94.8062 322.972 91.4131 322.972 87.2017C322.972 79.2678 318.599 75.5753 310.322 75.5753ZM309.462 97.0516C308.241 97.0716 307.28 97.0217 306.52 96.9618C306.469 94.9459 306.439 91.4929 306.439 89.5669V85.5351C306.439 83.589 306.459 80.3357 306.51 78.3996C310.092 78.21 312.774 78.1601 314.405 79.5073C316.047 80.8646 316.897 83.2497 316.897 87.1518C316.887 93.9779 314.175 96.9718 309.462 97.0516ZM562.902 75.5254C562.641 75.5254 558.438 75.5853 557.708 75.5853C555.716 75.5853 552.254 75.5454 552.254 75.5454C552.404 80.146 552.414 84.7567 552.414 86.8224C552.414 86.8224 552.394 96.8321 552.244 99.7761C554.085 99.7262 556.367 99.7262 558.318 99.7761C558.238 97.341 558.158 93.7084 558.128 89.6667H559.419C567.345 89.6667 570.257 86.9821 570.257 82.0422C570.247 77.8307 567.145 75.5254 562.902 75.5254ZM563.412 85.8444C562.411 86.9222 560.93 87.3115 558.889 87.3115H558.108C558.108 87.1518 558.108 86.9921 558.108 86.8324C558.098 83.4593 558.098 81.2039 558.118 78.0403C561.911 77.7509 564.543 78.5193 564.543 82.1919C564.543 83.7986 564.203 84.9962 563.412 85.8444ZM506.569 75.0464C498.733 75.0464 493.67 79.9963 493.67 87.6707C493.67 95.3451 498.733 100.295 506.569 100.295C514.425 100.295 519.499 95.3451 519.499 87.6707C519.499 79.7568 514.665 75.0464 506.569 75.0464ZM506.569 97.6205C502.206 97.6205 499.804 94.0877 499.804 87.6707C499.804 81.1141 502.146 77.6511 506.569 77.6511C510.893 77.6511 513.364 81.3037 513.364 87.6707C513.364 94.0777 510.953 97.6205 506.569 97.6205ZM546.379 75.5354C546.139 79.7269 546.119 84.6169 546.129 89.2176C546.129 95.7543 543.037 100.285 535.941 100.285C528.075 100.285 525.293 96.5926 525.293 90.0459C525.293 87.0121 525.443 81.7029 525.203 75.5454C527.445 75.5853 528.996 75.5953 531.348 75.5454C531.148 78.8786 531.068 81.7328 530.998 85.6448C530.878 92.93 531.378 97.2313 536.852 97.2313C541.816 97.2313 542.776 93.2793 542.776 87.8703C542.776 82.7707 542.676 79.1581 542.466 75.5354C544.348 75.5953 544.718 75.5953 546.379 75.5354ZM489.837 97.7602C487.225 94.1475 484.803 90.7644 482.842 87.8903C485.524 87.4911 488.916 85.9842 488.916 81.2139C488.916 77.4914 486.174 75.5155 481 75.5155C478.759 75.5155 477.458 75.5753 476.066 75.5753C474.705 75.5753 471.513 75.5454 471.513 75.5454C471.603 78.9385 471.583 81.9224 471.583 86.0141C471.583 90.0858 471.503 95.6545 471.403 99.7761C473.595 99.7362 474.836 99.7262 477.337 99.7761C477.247 97.3011 477.177 91.1337 477.137 88.3793C479.199 91.453 481.18 94.397 483.322 98.0296C484.032 99.2372 484.583 99.816 485.704 99.7761C487.695 99.6963 488.796 99.6064 491.958 99.8459L492.109 99.4268C490.838 99.1973 489.837 97.7602 489.837 97.7602ZM477.828 86.4532H477.107C477.127 84.2577 477.157 79.5273 477.187 78.0303C481.491 77.6711 482.862 79.4175 482.862 81.9923C482.862 85.9043 480.45 86.4532 477.828 86.4532ZM465.969 88.6388C465.779 90.3054 465.769 96.892 465.879 98.7382C463.787 99.317 459.914 100.195 456.632 100.185C447.885 100.155 442.942 95.6146 442.942 87.6308C442.942 83.9483 444.113 80.8446 446.314 78.6491C448.686 76.2939 452.159 75.0863 456.392 75.0764C460.765 75.0764 463.917 76.1442 465.389 76.9026C465.078 77.6112 464.458 78.9984 464.057 81.0342L463.157 80.8646C461.976 78.0802 459.124 77.8108 457.042 77.8108C451.908 77.8108 448.966 81.3137 448.966 87.5909C448.966 95.6145 453.259 97.2013 456.872 97.2013C458.263 97.2013 459.544 97.0915 460.455 96.7223C460.395 94.1775 460.205 90.6646 460.045 88.6388C461.846 88.6687 464.057 88.6986 465.969 88.6388Z" fill="#231815"/>
</g>
<defs>
<clipPath id="clip0">
<rect width="574" height="113" fill="white"/>
</clipPath>
</defs>
</svg>
