<svg width="226" height="50" viewBox="0 0 226 50" fill="none" xmlns="http://www.w3.org/2000/svg">
<path d="M33.3993 7.03287C33.3993 11.2349 29.7095 13.8151 26.0494 13.8151C21.678 13.8151 19.0107 10.1144 19.0107 6.92966C19.0107 3.15521 22.4189 0.132696 25.9753 0.132696C30.7764 0.132696 33.3993 3.7892 33.3993 7.03287ZM22.8042 2.49173C22.1373 3.59753 21.8706 5.17513 21.8706 6.90018C21.8706 10.881 23.6192 13.3433 26.2124 13.3433C30.3319 13.3433 30.5393 8.19765 30.5393 6.59055C30.5393 2.18211 28.2869 0.604503 26.3161 0.604503C24.2564 0.604503 23.3524 1.59235 22.8042 2.49173ZM197.719 1.62184C196.712 0.722454 195.541 0.162184 194.074 0.117952C190.933 0.0294879 189.288 1.66607 189.317 3.71548C189.347 5.33732 190.666 6.54632 192.874 7.78482C195.126 9.03805 196.371 10.0259 196.371 11.0432C196.371 12.3849 195.541 13.476 193.63 13.3138C192.074 13.1811 190.251 11.9131 189.658 9.53935H189.14L189.199 12.5619C190.74 13.4023 192.37 13.7856 193.615 13.8004C196.934 13.8741 198.357 12.1048 198.357 10.1881C198.357 8.50727 196.667 7.40147 194.489 6.104C192.326 4.82128 190.962 4.01036 190.947 2.8161C190.933 1.60709 192 0.398087 194.059 0.604503C195.704 0.766686 196.875 1.79876 197.423 4.08408H197.942L197.719 1.62184ZM79.8398 10.6304C78.3876 12.6503 78.0764 12.9452 75.0091 12.9452H72.238V3.14047C72.238 1.38593 72.979 1.06157 74.5052 1.06157V0.560271H67.6888V1.06157C69.2151 1.06157 69.956 1.38593 69.956 3.14047V10.8516C69.956 12.6061 69.2151 12.9305 67.6888 12.9305V13.4318H79.2915L80.3288 10.6304H79.8398ZM133.956 10.6304C132.504 12.6503 132.193 12.9452 129.126 12.9452H126.354V7.25403H127.955C129.718 7.25403 130.044 7.99123 130.044 9.50986H130.548V4.49691H130.044C130.044 6.01554 129.718 6.75274 127.955 6.75274H126.354V1.06157C127.881 1.06157 129.259 1.06157 129.511 1.06157C130.904 1.06157 131.378 1.20901 132.741 3.052H133.23L132.045 0.575015H121.82V1.07631C123.346 1.07631 124.087 1.40068 124.087 3.15521V10.8663C124.087 12.6208 123.346 12.9452 121.82 12.9452V13.4465H133.423L134.46 10.6451H133.956V10.6304ZM64.6807 10.6304C63.2285 12.6503 62.9173 12.9452 59.8499 12.9452H57.0789V7.25403H58.6793C60.4427 7.25403 60.7687 7.99123 60.7687 9.50986H61.2725V4.49691H60.7687C60.7687 6.01554 60.4427 6.75274 58.6793 6.75274H57.0789V1.06157C58.6052 1.06157 59.9833 1.06157 60.2352 1.06157C61.6281 1.06157 62.1023 1.20901 63.4656 3.052H63.9546L62.7691 0.575015H52.5445V1.07631C54.0708 1.07631 54.8117 1.40068 54.8117 3.15521V10.8663C54.8117 12.6208 54.0708 12.9452 52.5445 12.9452V13.4465H64.1472L65.1845 10.6451H64.6807V10.6304ZM16.1656 1.06157V0.560271H9.33432V1.06157C10.8606 1.06157 11.6015 1.38593 11.6015 3.14047V6.75274H4.7851V3.14047C4.7851 1.38593 5.52602 1.06157 7.0523 1.06157V0.560271H0.23588V1.06157C1.76217 1.06157 2.50308 1.38593 2.50308 3.14047V10.8516C2.50308 12.6061 1.76217 12.9305 0.23588 12.9305V13.4318H7.0523V12.9452C5.52602 12.9452 4.7851 12.6208 4.7851 10.8663V7.25403H11.6015V10.8663C11.6015 12.6208 10.8606 12.9452 9.33432 12.9452V13.4465H16.1507V12.9452C14.6245 12.9452 13.8835 12.6208 13.8835 10.8663V3.14047C13.8835 1.38593 14.6245 1.06157 16.1656 1.06157ZM118.545 1.06157V0.560271H111.729V1.06157C113.255 1.06157 113.996 1.38593 113.996 3.14047V6.75274H107.18V3.14047C107.18 1.38593 107.921 1.06157 109.447 1.06157V0.560271H102.63V1.06157C104.157 1.06157 104.898 1.38593 104.898 3.14047V10.8516C104.898 12.6061 104.157 12.9305 102.63 12.9305V13.4318H109.447V12.9452C107.921 12.9452 107.18 12.6208 107.18 10.8663V7.25403H113.996V10.8663C113.996 12.6208 113.255 12.9452 111.729 12.9452V13.4465H118.545V12.9452C117.019 12.9452 116.278 12.6208 116.278 10.8663V3.14047C116.278 1.38593 117.019 1.06157 118.545 1.06157ZM225.489 1.06157V0.560271H218.673V1.06157C220.199 1.06157 220.94 1.38593 220.94 3.14047V10.8516C220.94 12.6061 220.199 12.9305 218.673 12.9305V13.4318H225.489V12.9452C223.963 12.9452 223.222 12.6208 223.222 10.8663V3.14047C223.222 1.38593 223.963 1.06157 225.489 1.06157ZM169.253 1.06157V0.560271H162.437V1.06157C163.963 1.06157 164.704 1.38593 164.704 3.14047V10.8516C164.704 12.6061 163.963 12.9305 162.437 12.9305V13.4318H169.253V12.9452C167.727 12.9452 166.986 12.6208 166.986 10.8663V3.14047C166.986 1.38593 167.727 1.06157 169.253 1.06157ZM48.5436 0H48.0397C47.8619 0.427575 47.5952 0.560271 44.8538 0.560271H40.7788C38.0522 0.560271 37.7707 0.427575 37.5928 0H37.089L35.9035 4.09882L36.3185 4.20203C37.4002 1.75453 37.9188 1.06157 39.6378 1.06157C41.6679 1.06157 41.6679 1.13529 41.6679 3.14047V10.8516C41.6679 12.6061 40.927 12.9305 39.4007 12.9305V13.4318H46.2171V12.9452C44.6908 12.9452 43.9499 12.6208 43.9499 10.8663V3.14047C43.9499 1.12054 43.9499 1.06157 45.98 1.06157C47.6989 1.06157 48.2324 1.75453 49.2993 4.20203L49.7142 4.09882L48.5436 0ZM98.7035 0H98.1997C98.0219 0.427575 97.7552 0.560271 95.0138 0.560271H90.9387C88.2122 0.560271 87.9306 0.427575 87.7528 0H87.249L86.0635 4.09882L86.4784 4.20203C87.5602 1.75453 88.0788 1.06157 89.7977 1.06157C91.8278 1.06157 91.8278 1.13529 91.8278 3.14047V10.8516C91.8278 12.6061 91.0869 12.9305 89.5606 12.9305V13.4318H96.3771V12.9452C94.8508 12.9452 94.1099 12.6208 94.1099 10.8663V3.14047C94.1099 1.12054 94.1098 1.06157 96.14 1.06157C97.8589 1.06157 98.3923 1.75453 99.4593 4.20203L99.8742 4.09882L98.7035 0ZM184.887 0H184.383C184.205 0.427575 183.938 0.560271 181.197 0.560271H177.122C174.395 0.560271 174.114 0.427575 173.936 0H173.432L172.247 4.09882L172.662 4.20203C173.743 1.75453 174.262 1.06157 175.981 1.06157C178.011 1.06157 178.011 1.13529 178.011 3.14047V10.8516C178.011 12.6061 177.27 12.9305 175.744 12.9305V13.4318H182.56V12.9452C181.034 12.9452 180.293 12.6208 180.293 10.8663V3.14047C180.293 1.12054 180.293 1.06157 182.323 1.06157C184.042 1.06157 184.576 1.75453 185.643 4.20203L186.057 4.09882L184.887 0ZM211.174 1.06157C212.701 1.06157 213.442 1.843 213.442 3.59753V7.88802C213.442 11.4413 211.915 13.1959 209.456 13.1959C205.81 13.1959 205.662 9.74576 205.662 7.947V2.62443C205.662 1.40068 206.284 1.00259 208.033 1.00259V0.560271H200.92V1.01733C202.609 1.01733 203.247 1.37119 203.247 2.50647V8.6842C203.247 12.4292 206.136 13.8151 208.981 13.8151C213.027 13.8151 213.96 10.6746 213.96 8.05021V4.05459C213.96 2.30006 214.701 1.06157 216.228 1.06157V0.560271H211.189V1.06157H211.174ZM159.177 1.06157V0.560271H154.88L150.657 10.8073L146.507 0.560271H142.506V1.06157C144.033 1.06157 144.774 1.38593 144.774 3.14047V9.95218C144.774 11.7067 144.033 12.9452 142.506 12.9452V13.4465H147.545V12.9452C146.018 12.9452 145.277 12.1638 145.277 10.4092V2.74238H145.337L149.649 13.4465H150.197L154.598 2.65391H154.643V10.8663C154.643 12.6208 153.902 12.9452 152.375 12.9452V13.4465H159.192V12.9452C157.666 12.9452 156.925 12.6208 156.925 10.8663V3.14047C156.91 1.38593 157.651 1.06157 159.177 1.06157ZM117.508 44.5415C117.508 47.6967 114.737 49.6282 111.996 49.6282C108.721 49.6282 106.72 46.8563 106.72 44.4678C106.72 41.637 109.269 39.3664 111.951 39.3664C115.552 39.3517 117.508 42.094 117.508 44.5415ZM109.565 41.1357C109.062 41.9613 108.869 43.1556 108.869 44.4383C108.869 47.4166 110.173 49.2596 112.129 49.2596C115.211 49.2596 115.374 45.3967 115.374 44.1877C115.374 40.885 113.685 39.7055 112.203 39.7055C110.662 39.7055 109.98 40.4574 109.565 41.1357ZM164.438 44.5415C164.438 47.6967 161.667 49.6282 158.925 49.6282C155.65 49.6282 153.65 46.8563 153.65 44.4678C153.65 41.637 156.199 39.3664 158.881 39.3664C162.467 39.3517 164.438 42.094 164.438 44.5415ZM156.495 41.1357C155.991 41.9613 155.798 43.1556 155.798 44.4383C155.798 47.4166 157.102 49.2596 159.058 49.2596C162.141 49.2596 162.304 45.3967 162.304 44.1877C162.304 40.885 160.614 39.7055 159.133 39.7055C157.591 39.7055 156.91 40.4574 156.495 41.1357ZM139.869 39.2632H139.498C139.365 39.5876 139.158 39.6908 137.113 39.6908H134.06C132.015 39.6908 131.808 39.5876 131.674 39.2632H131.289L130.4 42.3299L130.711 42.4184C131.511 40.5754 131.911 40.0594 133.201 40.0594C134.727 40.0594 134.727 40.1183 134.727 41.6222V47.4019C134.727 48.7141 134.164 48.9647 133.023 48.9647V49.3333H138.135V48.9647C136.994 48.9647 136.431 48.7141 136.431 47.4019V41.6222C136.431 40.1183 136.431 40.0594 137.957 40.0594C139.246 40.0594 139.647 40.5901 140.447 42.4184L140.758 42.3299L139.869 39.2632ZM90.6276 39.6908V40.0594C91.7982 40.1773 91.9019 40.4869 91.161 41.6222L89.4717 44.1729L87.7824 41.6222C87.0267 40.4869 87.1304 40.1773 88.3159 40.0594V39.6908H83.826V40.0594C84.7743 40.0594 85.2485 40.3395 85.8857 41.3126L88.0047 44.512V47.4019C88.0047 48.7141 87.4416 48.9647 86.3006 48.9647V49.3333H91.4129V48.9647C90.2719 48.9647 89.7088 48.7141 89.7088 47.4019V44.512L91.8278 41.3126C92.4798 40.3395 92.9392 40.0594 93.8876 40.0594V39.6908H90.6276ZM69.4226 47.4166L66.1329 43.937C66.8738 43.0671 67.348 42.5069 68.0741 41.6075C68.9484 40.4869 69.6893 40.1921 70.7118 40.0446V39.676H67.3332V40.0446C68.1482 40.1626 68.3408 40.4869 67.5851 41.6075C66.0588 43.5537 65.4957 44.2024 64.6511 44.3204V41.6075C64.6511 40.2953 65.2142 40.0446 66.3552 40.0446V39.676H61.2429V40.0446C62.3839 40.0446 62.947 40.2953 62.947 41.6075V47.4019C62.947 48.7141 62.3839 48.9647 61.2429 48.9647V49.3333H66.3552V48.9647C65.2142 48.9647 64.6511 48.7141 64.6511 47.4019V44.689C65.066 44.689 66.4885 46.2223 67.5851 47.4019C68.8298 48.7141 68.978 48.9647 67.837 48.9647V49.3333H71.7638V48.9647C70.8896 48.8615 70.1635 48.198 69.4226 47.4166ZM5.02219 26.318C3.54036 26.318 1.37689 26.2295 0.0728788 26.0821C-0.00121275 26.0821 -0.0160311 26.1116 0.0284239 26.1558C0.680429 26.8783 1.27316 27.0847 2.28081 26.952C3.25881 26.834 3.88118 26.8045 5.02219 26.8045H217.176C218.865 26.8045 221.458 26.8488 224.259 26.9225C224.807 26.9372 225.489 26.9225 225.489 26.5686C225.489 26.2148 224.807 26.2 224.259 26.2148C221.458 26.2885 218.865 26.3327 217.176 26.3327L5.02219 26.318Z" fill="#190E0A"/>
</svg>
