<svg xmlns="http://www.w3.org/2000/svg" viewBox="0 0 208.23 20.89" width="209" height="21"><defs><style>.cls-1{fill:#fff;}</style></defs><g id="レイヤー_2" data-name="レイヤー 2"><g id="レイヤー_1-2" data-name="レイヤー 1"><path class="cls-1" d="M113.53,10.64c0,6.35-5.59,10.25-11.12,10.25a10.64,10.64,0,0,1-10.65-10.4C91.76,4.78,96.91.21,102.32.21,109.59.18,113.53,5.7,113.53,10.64Zm-16-6.87a13.15,13.15,0,0,0-1.41,6.66c0,6,2.63,9.71,6.58,9.71,6.22,0,6.55-7.78,6.55-10.22,0-6.65-3.41-9-6.4-9A5.65,5.65,0,0,0,97.51,3.77Zm110.72,6.87c0,6.35-5.59,10.25-11.12,10.25a10.64,10.64,0,0,1-10.65-10.4C186.46,4.78,191.6.21,197,.21,204.25.18,208.23,5.7,208.23,10.64Zm-16-6.87a13.26,13.26,0,0,0-1.4,6.66c0,6,2.63,9.71,6.58,9.71,6.21,0,6.54-7.78,6.54-10.22,0-6.65-3.41-9-6.4-9A5.66,5.66,0,0,0,192.2,3.77ZM158.65,0h-.74c-.27.65-.69.86-4.82.86h-6.16c-4.12,0-4.54-.21-4.81-.86h-.78l-1.79,6.18.62.18c1.62-3.72,2.43-4.76,5-4.76,3.08,0,3.08.12,3.08,3.15V16.4c0,2.64-1.14,3.15-3.44,3.15v.74h10.32v-.74c-2.31,0-3.44-.51-3.44-3.15V4.75c0-3,0-3.15,3.08-3.15,2.6,0,3.4,1.07,5,4.76l.63-.18ZM59.29.86V1.6c2.36.24,2.57.87,1.08,3.15L57,9.89,53.55,4.75C52,2.47,52.24,1.84,54.63,1.6V.86H45.57V1.6c1.91,0,2.87.57,4.15,2.53L54,10.58V16.4c0,2.64-1.14,3.15-3.44,3.15v.74H60.88v-.74c-2.3,0-3.44-.51-3.44-3.15V10.58l4.28-6.45C63,2.17,64,1.6,65.87,1.6V.86ZM16.5,16.43l-6.63-7c1.49-1.76,2.45-2.88,3.91-4.7a7.27,7.27,0,0,1,5.33-3.15V.83H12.29v.74c1.64.24,2,.9.51,3.15C9.72,8.65,8.58,10,6.88,10.19V4.72c0-2.64,1.13-3.15,3.44-3.15V.83H0v.74c2.3,0,3.44.51,3.44,3.15V16.4C3.44,19,2.3,19.55,0,19.55v.74H10.32v-.74C8,19.55,6.88,19,6.88,16.4V10.93c.83,0,3.7,3.09,5.92,5.47,2.51,2.64,2.81,3.15.51,3.15v.74h7.92v-.74C19.47,19.34,18,18,16.5,16.43Z"/></g></g></svg>
