<svg xmlns="http://www.w3.org/2000/svg" viewBox="0 0 454.52 27.84" width="455" height="28"><defs><style>.cls-1{fill:#fff;}</style></defs><g id="レイヤー_2" data-name="レイヤー 2"><g id="レイヤー_1-2" data-name="レイヤー 1"><path class="cls-1" d="M66.92,14.17c0,8.47-7.45,13.67-14.83,13.67A14.2,14.2,0,0,1,37.88,14C37.88,6.36,44.76.27,51.94.27,61.63.27,66.92,7.64,66.92,14.17ZM45.54,5c-1.35,2.23-1.88,5.41-1.88,8.88,0,8,3.52,13,8.76,13,8.31,0,8.73-10.37,8.73-13.61,0-8.88-4.55-12.06-8.52-12.06C48.47,1.22,46.65,3.21,45.54,5Zm353-1.75a11.24,11.24,0,0,0-7.36-3c-6.34-.18-9.66,3.12-9.6,7.25.06,3.26,2.72,5.7,7.18,8.2s7.06,4.51,7.06,6.56c0,2.71-1.68,4.9-5.54,4.58-3.13-.27-6.81-2.83-8-7.61h-1.05l.12,6.09a19.88,19.88,0,0,0,8.91,2.5c6.7.15,9.57-3.42,9.57-7.28,0-3.39-3.41-5.62-7.8-8.23s-7.12-4.22-7.15-6.63S387,.8,391.1,1.22c3.32.32,5.68,2.4,6.79,7h1.05ZM160.63,21.42c-2.93,4.07-3.56,4.66-9.75,4.66h-5.59V6.33c0-3.54,1.49-4.19,4.57-4.19v-1H136.11v1c3.08,0,4.57.65,4.57,4.19V21.87c0,3.53-1.49,4.18-4.57,4.18v1h23.41l2.09-5.64Zm109.19,0c-2.93,4.07-3.55,4.66-9.74,4.66h-5.59V14.62h3.22c3.56,0,4.22,1.48,4.22,4.54h1V9.06h-1c0,3.06-.66,4.55-4.22,4.55h-3.22V2.14h6.36c2.81,0,3.77.3,6.52,4h1l-2.39-5H245.34v1c3.08,0,4.57.65,4.57,4.19V21.9c0,3.53-1.49,4.18-4.57,4.18v1h23.41l2.09-5.64h-1ZM130,21.42c-2.93,4.07-3.56,4.66-9.75,4.66H114.7V14.62h3.23c3.56,0,4.21,1.48,4.21,4.54h1V9.06h-1c0,3.06-.65,4.55-4.21,4.55H114.7V2.14h6.37c2.81,0,3.77.3,6.52,4h1l-2.39-5H105.55v1c3.08,0,4.57.65,4.57,4.19V21.9c0,3.53-1.49,4.18-4.57,4.18v1H129l2.09-5.64h-1ZM32.14,2.14v-1H18.36v1c3.08,0,4.57.65,4.57,4.19v7.28H9.18V6.33c0-3.54,1.49-4.19,4.57-4.19v-1H0v1c3.08,0,4.57.65,4.57,4.19V21.87c0,3.53-1.49,4.18-4.57,4.18v1H13.75v-1c-3.08,0-4.57-.65-4.57-4.18V14.62H22.93V21.9c0,3.53-1.49,4.18-4.57,4.18v1H32.11v-1c-3.08,0-4.57-.65-4.57-4.18V6.33C27.54,2.79,29,2.14,32.14,2.14Zm206.59,0v-1H225v1c3.08,0,4.58.65,4.58,4.19v7.28H215.79V6.33c0-3.54,1.5-4.19,4.58-4.19v-1H206.61v1c3.08,0,4.58.65,4.58,4.19V21.87c0,3.53-1.5,4.18-4.58,4.18v1h13.76v-1c-3.08,0-4.58-.65-4.58-4.18V14.62h13.76V21.9c0,3.53-1.5,4.18-4.58,4.18v1h13.76v-1c-3.08,0-4.58-.65-4.58-4.18V6.33C234.15,2.79,235.65,2.14,238.73,2.14Zm215.79,0v-1H440.77v1c3.08,0,4.57.65,4.57,4.19V21.87c0,3.53-1.49,4.18-4.57,4.18v1h13.75v-1c-3.08,0-4.57-.65-4.57-4.18V6.33C450,2.79,451.44,2.14,454.52,2.14Zm-113.47,0v-1H327.29v1c3.08,0,4.58.65,4.58,4.19V21.87c0,3.53-1.5,4.18-4.58,4.18v1h13.76v-1c-3.08,0-4.58-.65-4.58-4.18V6.33C336.47,2.79,338,2.14,341.05,2.14ZM97.48,0h-1c-.36.86-.9,1.13-6.43,1.13H81.81c-5.5,0-6.07-.27-6.43-1.13h-1L72,8.26l.84.21C75,3.54,76,2.14,79.51,2.14c4.09,0,4.09.15,4.09,4.19V21.87c0,3.53-1.49,4.18-4.57,4.18v1H92.78v-1c-3.08,0-4.57-.65-4.57-4.18V6.33c0-4.07,0-4.19,4.09-4.19,3.47,0,4.55,1.4,6.7,6.33l.84-.21ZM198.69,0h-1c-.35.86-.89,1.13-6.42,1.13H183c-5.5,0-6.07-.27-6.43-1.13h-1l-2.39,8.26.83.21c2.19-4.93,3.23-6.33,6.7-6.33,4.1,0,4.1.15,4.1,4.19V21.87c0,3.53-1.5,4.18-4.58,4.18v1H194v-1c-3.08,0-4.58-.65-4.58-4.18V6.33c0-4.07,0-4.19,4.1-4.19,3.47,0,4.54,1.4,6.7,6.33l.83-.21Zm173.9,0h-1c-.36.86-.9,1.13-6.43,1.13h-8.22c-5.51,0-6.07-.27-6.43-1.13h-1l-2.39,8.26.84.21c2.18-4.93,3.22-6.33,6.69-6.33,4.1,0,4.1.15,4.1,4.19V21.87c0,3.53-1.5,4.18-4.58,4.18v1H367.9v-1c-3.08,0-4.58-.65-4.58-4.18V6.33c0-4.07,0-4.19,4.1-4.19,3.47,0,4.55,1.4,6.7,6.33l.84-.21Zm53.05,2.14c3.08,0,4.57,1.57,4.57,5.11v8.64c0,7.16-3.08,10.7-8,10.7-7.36,0-7.66-6.95-7.66-10.58V5.29c0-2.47,1.26-3.27,4.79-3.27V1.13H405v.92c3.4,0,4.69.71,4.69,3V17.5c0,7.54,5.83,10.34,11.57,10.34,8.16,0,10.05-6.33,10.05-11.62v-8c0-3.54,1.49-6,4.57-6v-1H425.67v1Zm-104.92,0v-1H312l-8.52,20.65L295.15,1.13h-8.07v1c3.08,0,4.57.65,4.57,4.19V20.05c0,3.54-1.49,6-4.57,6v1h10.16v-1c-3.08,0-4.57-1.57-4.57-5.11V5.53h.12l8.7,21.56h1.11l8.88-21.74h.09V21.9c0,3.53-1.5,4.18-4.58,4.18v1h13.76v-1c-3.08,0-4.58-.65-4.58-4.18V6.33C316.14,2.79,317.64,2.14,320.72,2.14Z"/></g></g></svg>
